# Rhino

o object_1
v 170 0 70
v 190 0 -30
v 190 60 -30
v 170 60 70
v 0 0 -60
v 0 60 -60
v 0 0 40
v 0 60 40
f 1 2 3 4
f 5 6 3 2
f 7 8 6 5
f 1 4 8 7
f 4 3 6 8
f 2 1 7 5
o object_2
v -70 0 -90
v -90 0 -60
v -90 60 -60
v -70 60 -90
v 0 0 40
v 0 60 40
v 0 0 -60
v 0 60 -60
f 9 10 11 12
f 13 14 11 10
f 15 16 14 13
f 9 12 16 15
f 12 11 14 16
f 10 9 15 13
o object_3
v -100 0 -140
v -120 0 -120
v -120 60 -120
v -100 60 -140
v -90 0 -60
v -90 60 -60
v -70 0 -90
v -70 60 -90
f 17 18 19 20
f 21 22 19 18
f 23 24 22 21
f 17 20 24 23
f 20 19 22 24
f 18 17 23 21
o object_4
v 20 0 -170
v -20 0 -160
v -20 60 -160
v 20 60 -170
v -10 0 -110
v -10 60 -110
v 29.530747898981755 0 -111.79685217722643
v 29.530747898981755 60 -111.79685217722643
f 25 26 27 28
f 29 30 27 26
f 31 32 30 29
f 25 28 32 31
f 28 27 30 32
f 26 25 31 29
o object_5
v 10 0 -230
v -30 0 -230
v -30 60 -230
v 10 60 -230
v -20 0 -160
v -20 60 -160
v 20 0 -170
v 20 60 -170
f 33 34 35 36
f 37 38 35 34
f 39 40 38 37
f 33 36 40 39
f 36 35 38 40
f 34 33 39 37
o object_6
v 0 0 -290
v 0 60 -290
v 10 60 -230
v 10 0 -230
v -30 0 -230
v -30 60 -230
v -30 0 -290
v -30 60 -290
f 41 42 43 44
f 45 44 43 46
f 47 45 46 48
f 41 47 48 42
f 42 48 46 43
f 44 45 47 41
o object_7
v 70 0 -170
v 30 0 -170
v 30 60 -170
v 70 60 -170
v 29.530747898981755 0 -111.79685217722643
v 29.530747898981755 60 -111.79685217722643
v 75.918478375918184 0 -113.90538538072356
v 75.918478375918184 60 -113.90538538072356
f 49 50 51 52
f 53 54 51 50
f 55 56 54 53
f 49 52 56 55
f 52 51 54 56
f 50 49 55 53
o object_8
v 70 0 -230
v 70 60 -230
v 70 60 -170
v 70 0 -170
v 30 0 -170
v 30 60 -170
v 30 0 -230
v 30 60 -230
f 57 58 59 60
f 61 60 59 62
f 63 61 62 64
f 57 63 64 58
f 58 64 62 59
f 60 61 63 57
o object_9
v 60 0 -310
v 60 60 -310
v 70 60 -230
v 70 0 -230
v 30 0 -230
v 30 60 -230
v 30 0 -300
v 30 60 -300
f 65 66 67 68
f 69 68 67 70
f 71 69 70 72
f 65 71 72 66
f 66 72 70 67
f 68 69 71 65
o object_10
v 130 0 -180
v 90 0 -170
v 90 60 -170
v 130 60 -180
v 75.918478375918184 0 -113.90538538072356
v 75.918478375918184 60 -113.90538538072356
v 138.44329896907212 0 -116.74742268041237
v 138.44329896907212 60 -116.74742268041237
f 73 74 75 76
f 77 78 75 74
f 79 80 78 77
f 73 76 80 79
f 76 75 78 80
f 74 73 79 77
o object_11
v 120 0 -230
v 120 60 -230
v 130 60 -180
v 130 0 -180
v 90 0 -170
v 90 60 -170
v 90 0 -230
v 90 60 -230
f 81 82 83 84
f 85 84 83 86
f 87 85 86 88
f 81 87 88 82
f 82 88 86 83
f 84 85 87 81
o object_12
v 110 0 -300
v 110 60 -300
v 120 60 -230
v 120 0 -230
v 90 0 -230
v 90 60 -230
v 90 0 -300
v 90 60 -300
f 89 90 91 92
f 93 92 91 94
f 95 93 94 96
f 89 95 96 90
f 90 96 94 91
f 92 93 95 89
o object_13
v 170 0 -180
v 150 0 -170
v 150 60 -170
v 170 60 -180
v 138.44329896907212 0 -116.74742268041237
v 138.44329896907212 60 -116.74742268041237
v 180.39973327123772 0 -118.65453333051079
v 180.39973327123772 60 -118.65453333051079
f 97 98 99 100
f 101 102 99 98
f 103 104 102 101
f 97 100 104 103
f 100 99 102 104
f 98 97 103 101
o object_14
v 170 0 -220
v 170 60 -220
v 170 60 -180
v 170 0 -180
v 150 0 -170
v 150 60 -170
v 150 0 -220
v 150 60 -220
f 105 106 107 108
f 109 108 107 110
f 111 109 110 112
f 105 111 112 106
f 106 112 110 107
f 108 109 111 105
o object_15
v 170 0 -250
v 170 60 -250
v 170 60 -220
v 170 0 -220
v 150 0 -220
v 150 60 -220
v 150 0 -250
v 150 60 -250
f 113 114 115 116
f 117 116 115 118
f 119 117 118 120
f 113 119 120 114
f 114 120 118 115
f 116 117 119 113
o object_16
v 180.39973327123772 0 -118.65453333051079
v 180.39973327123772 60 -118.65453333051079
v 190 60 -30
v 190 0 -30
v 0 0 -60
v 0 60 -60
v -10 0 -110
v -10 60 -110
f 121 122 123 124
f 125 124 123 126
f 127 125 126 128
f 121 127 128 122
f 122 128 126 123
f 124 125 127 121
