# Rhino

g object_1
v 170 0 70
v 190 0 -30
v 190 60 -30
v 170 60 70
v 0 0 -60
v 0 60 -60
v 190 60 -30
v 190 0 -30
v 0 0 40
v 0 60 40
v 0 60 -60
v 0 0 -60
v 170 0 70
v 170 60 70
v 0 60 40
v 0 0 40
v 170 60 70
v 190 60 -30
v 0 60 -60
v 0 60 40
v 190 0 -30
v 170 0 70
v 0 0 40
v 0 0 -60
f 1 2 3 4
f 5 6 7 8
f 9 10 11 12
f 13 14 15 16
f 17 18 19 20
f 21 22 23 24
g object_2
v -70 0 -90
v -90 0 -60
v -90 60 -60
v -70 60 -90
v 0 0 40
v 0 60 40
v -90 60 -60
v -90 0 -60
v 0 0 -60
v 0 60 -60
v 0 60 40
v 0 0 40
v -70 0 -90
v -70 60 -90
v 0 60 -60
v 0 0 -60
v -70 60 -90
v -90 60 -60
v 0 60 40
v 0 60 -60
v -90 0 -60
v -70 0 -90
v 0 0 -60
v 0 0 40
f 25 26 27 28
f 29 30 31 32
f 33 34 35 36
f 37 38 39 40
f 41 42 43 44
f 45 46 47 48
g object_3
v -100 0 -140
v -120 0 -120
v -120 60 -120
v -100 60 -140
v -90 0 -60
v -90 60 -60
v -120 60 -120
v -120 0 -120
v -70 0 -90
v -70 60 -90
v -90 60 -60
v -90 0 -60
v -100 0 -140
v -100 60 -140
v -70 60 -90
v -70 0 -90
v -100 60 -140
v -120 60 -120
v -90 60 -60
v -70 60 -90
v -120 0 -120
v -100 0 -140
v -70 0 -90
v -90 0 -60
f 49 50 51 52
f 53 54 55 56
f 57 58 59 60
f 61 62 63 64
f 65 66 67 68
f 69 70 71 72
g object_4
v 20 0 -170
v -20 0 -160
v -20 60 -160
v 20 60 -170
v -10 0 -110
v -10 60 -110
v -20 60 -160
v -20 0 -160
v 29.530747898981755 0 -111.79685217722643
v 29.530747898981755 60 -111.79685217722643
v -10 60 -110
v -10 0 -110
v 20 0 -170
v 20 60 -170
v 29.530747898981755 60 -111.79685217722643
v 29.530747898981755 0 -111.79685217722643
v 20 60 -170
v -20 60 -160
v -10 60 -110
v 29.530747898981755 60 -111.79685217722643
v -20 0 -160
v 20 0 -170
v 29.530747898981755 0 -111.79685217722643
v -10 0 -110
f 73 74 75 76
f 77 78 79 80
f 81 82 83 84
f 85 86 87 88
f 89 90 91 92
f 93 94 95 96
g object_5
v 10 0 -230
v -30 0 -230
v -30 60 -230
v 10 60 -230
v -20 0 -160
v -20 60 -160
v -30 60 -230
v -30 0 -230
v 20 0 -170
v 20 60 -170
v -20 60 -160
v -20 0 -160
v 10 0 -230
v 10 60 -230
v 20 60 -170
v 20 0 -170
v 10 60 -230
v -30 60 -230
v -20 60 -160
v 20 60 -170
v -30 0 -230
v 10 0 -230
v 20 0 -170
v -20 0 -160
f 97 98 99 100
f 101 102 103 104
f 105 106 107 108
f 109 110 111 112
f 113 114 115 116
f 117 118 119 120
g object_6
v 0 0 -290
v 0 60 -290
v 10 60 -230
v 10 0 -230
v -30 0 -230
v 10 0 -230
v 10 60 -230
v -30 60 -230
v -30 0 -290
v -30 0 -230
v -30 60 -230
v -30 60 -290
v 0 0 -290
v -30 0 -290
v -30 60 -290
v 0 60 -290
v 0 60 -290
v -30 60 -290
v -30 60 -230
v 10 60 -230
v 10 0 -230
v -30 0 -230
v -30 0 -290
v 0 0 -290
f 121 122 123 124
f 125 126 127 128
f 129 130 131 132
f 133 134 135 136
f 137 138 139 140
f 141 142 143 144
g object_7
v 70 0 -170
v 30 0 -170
v 30 60 -170
v 70 60 -170
v 29.530747898981755 0 -111.79685217722643
v 29.530747898981755 60 -111.79685217722643
v 30 60 -170
v 30 0 -170
v 75.918478375918184 0 -113.90538538072356
v 75.918478375918184 60 -113.90538538072356
v 29.530747898981755 60 -111.79685217722643
v 29.530747898981755 0 -111.79685217722643
v 70 0 -170
v 70 60 -170
v 75.918478375918184 60 -113.90538538072356
v 75.918478375918184 0 -113.90538538072356
v 70 60 -170
v 30 60 -170
v 29.530747898981755 60 -111.79685217722643
v 75.918478375918184 60 -113.90538538072356
v 30 0 -170
v 70 0 -170
v 75.918478375918184 0 -113.90538538072356
v 29.530747898981755 0 -111.79685217722643
f 145 146 147 148
f 149 150 151 152
f 153 154 155 156
f 157 158 159 160
f 161 162 163 164
f 165 166 167 168
g object_8
v 70 0 -230
v 70 60 -230
v 70 60 -170
v 70 0 -170
v 30 0 -170
v 70 0 -170
v 70 60 -170
v 30 60 -170
v 30 0 -230
v 30 0 -170
v 30 60 -170
v 30 60 -230
v 70 0 -230
v 30 0 -230
v 30 60 -230
v 70 60 -230
v 70 60 -230
v 30 60 -230
v 30 60 -170
v 70 60 -170
v 70 0 -170
v 30 0 -170
v 30 0 -230
v 70 0 -230
f 169 170 171 172
f 173 174 175 176
f 177 178 179 180
f 181 182 183 184
f 185 186 187 188
f 189 190 191 192
g object_9
v 60 0 -310
v 60 60 -310
v 70 60 -230
v 70 0 -230
v 30 0 -230
v 70 0 -230
v 70 60 -230
v 30 60 -230
v 30 0 -300
v 30 0 -230
v 30 60 -230
v 30 60 -300
v 60 0 -310
v 30 0 -300
v 30 60 -300
v 60 60 -310
v 60 60 -310
v 30 60 -300
v 30 60 -230
v 70 60 -230
v 70 0 -230
v 30 0 -230
v 30 0 -300
v 60 0 -310
f 193 194 195 196
f 197 198 199 200
f 201 202 203 204
f 205 206 207 208
f 209 210 211 212
f 213 214 215 216
g object_10
v 130 0 -180
v 90 0 -170
v 90 60 -170
v 130 60 -180
v 75.918478375918184 0 -113.90538538072356
v 75.918478375918184 60 -113.90538538072356
v 90 60 -170
v 90 0 -170
v 138.44329896907212 0 -116.74742268041237
v 138.44329896907212 60 -116.74742268041237
v 75.918478375918184 60 -113.90538538072356
v 75.918478375918184 0 -113.90538538072356
v 130 0 -180
v 130 60 -180
v 138.44329896907212 60 -116.74742268041237
v 138.44329896907212 0 -116.74742268041237
v 130 60 -180
v 90 60 -170
v 75.918478375918184 60 -113.90538538072356
v 138.44329896907212 60 -116.74742268041237
v 90 0 -170
v 130 0 -180
v 138.44329896907212 0 -116.74742268041237
v 75.918478375918184 0 -113.90538538072356
f 217 218 219 220
f 221 222 223 224
f 225 226 227 228
f 229 230 231 232
f 233 234 235 236
f 237 238 239 240
g object_11
v 120 0 -230
v 120 60 -230
v 130 60 -180
v 130 0 -180
v 90 0 -170
v 130 0 -180
v 130 60 -180
v 90 60 -170
v 90 0 -230
v 90 0 -170
v 90 60 -170
v 90 60 -230
v 120 0 -230
v 90 0 -230
v 90 60 -230
v 120 60 -230
v 120 60 -230
v 90 60 -230
v 90 60 -170
v 130 60 -180
v 130 0 -180
v 90 0 -170
v 90 0 -230
v 120 0 -230
f 241 242 243 244
f 245 246 247 248
f 249 250 251 252
f 253 254 255 256
f 257 258 259 260
f 261 262 263 264
g object_12
v 110 0 -300
v 110 60 -300
v 120 60 -230
v 120 0 -230
v 90 0 -230
v 120 0 -230
v 120 60 -230
v 90 60 -230
v 90 0 -300
v 90 0 -230
v 90 60 -230
v 90 60 -300
v 110 0 -300
v 90 0 -300
v 90 60 -300
v 110 60 -300
v 110 60 -300
v 90 60 -300
v 90 60 -230
v 120 60 -230
v 120 0 -230
v 90 0 -230
v 90 0 -300
v 110 0 -300
f 265 266 267 268
f 269 270 271 272
f 273 274 275 276
f 277 278 279 280
f 281 282 283 284
f 285 286 287 288
g object_13
v 170 0 -180
v 150 0 -170
v 150 60 -170
v 170 60 -180
v 138.44329896907212 0 -116.74742268041237
v 138.44329896907212 60 -116.74742268041237
v 150 60 -170
v 150 0 -170
v 180.39973327123772 0 -118.65453333051079
v 180.39973327123772 60 -118.65453333051079
v 138.44329896907212 60 -116.74742268041237
v 138.44329896907212 0 -116.74742268041237
v 170 0 -180
v 170 60 -180
v 180.39973327123772 60 -118.65453333051079
v 180.39973327123772 0 -118.65453333051079
v 170 60 -180
v 150 60 -170
v 138.44329896907212 60 -116.74742268041237
v 180.39973327123772 60 -118.65453333051079
v 150 0 -170
v 170 0 -180
v 180.39973327123772 0 -118.65453333051079
v 138.44329896907212 0 -116.74742268041237
f 289 290 291 292
f 293 294 295 296
f 297 298 299 300
f 301 302 303 304
f 305 306 307 308
f 309 310 311 312
g object_14
v 170 0 -220
v 170 60 -220
v 170 60 -180
v 170 0 -180
v 150 0 -170
v 170 0 -180
v 170 60 -180
v 150 60 -170
v 150 0 -220
v 150 0 -170
v 150 60 -170
v 150 60 -220
v 170 0 -220
v 150 0 -220
v 150 60 -220
v 170 60 -220
v 170 60 -220
v 150 60 -220
v 150 60 -170
v 170 60 -180
v 170 0 -180
v 150 0 -170
v 150 0 -220
v 170 0 -220
f 313 314 315 316
f 317 318 319 320
f 321 322 323 324
f 325 326 327 328
f 329 330 331 332
f 333 334 335 336
g object_15
v 170 0 -250
v 170 60 -250
v 170 60 -220
v 170 0 -220
v 150 0 -220
v 170 0 -220
v 170 60 -220
v 150 60 -220
v 150 0 -250
v 150 0 -220
v 150 60 -220
v 150 60 -250
v 170 0 -250
v 150 0 -250
v 150 60 -250
v 170 60 -250
v 170 60 -250
v 150 60 -250
v 150 60 -220
v 170 60 -220
v 170 0 -220
v 150 0 -220
v 150 0 -250
v 170 0 -250
f 337 338 339 340
f 341 342 343 344
f 345 346 347 348
f 349 350 351 352
f 353 354 355 356
f 357 358 359 360
g object_16
v 180.39973327123772 0 -118.65453333051079
v 180.39973327123772 60 -118.65453333051079
v 190 60 -30
v 190 0 -30
v 0 0 -60
v 190 0 -30
v 190 60 -30
v 0 60 -60
v -10 0 -110
v 0 0 -60
v 0 60 -60
v -10 60 -110
v 180.39973327123772 0 -118.65453333051079
v -10 0 -110
v -10 60 -110
v 180.39973327123772 60 -118.65453333051079
v 180.39973327123772 60 -118.65453333051079
v -10 60 -110
v 0 60 -60
v 190 60 -30
v 190 0 -30
v 0 0 -60
v -10 0 -110
v 180.39973327123772 0 -118.65453333051079
f 361 362 363 364
f 365 366 367 368
f 369 370 371 372
f 373 374 375 376
f 377 378 379 380
f 381 382 383 384
