# Rhino

g Palm_2_Opening
v 153 2.6999999999999993 67
v 153 57.299999999999997 67
v 16.999999999999996 57.299999999999997 42.999999999999993
v 16.999999999999996 2.6999999999999993 42.999999999999993
f 1 2 3 4
g Palm_1
v 164.11734653263704 60 -110.79223114075027
v 11.797559915646872 60 -103.86860447634164
v 19.797559915646872 60 -63.868604476341645
v 171.79755991564687 60 -39.868604476341645
f 5 6 7 8
g Joint_1_1
v 168 60 -247
v 152 60 -247
v 152 60 -223
v 168 60 -223
f 9 10 11 12
g Joint_2_1
v 167.92592592592592 60 -215.48148148148147
v 151.92592592592592 60 -215.48148148148147
v 151.92592592592592 60 -175.48148148148147
v 167.92592592592592 60 -183.48148148148147
f 13 14 15 16
g Joint_3_1
v 168.04643991809621 60 -172.61075780902115
v 152.04643991809621 60 -164.61075780902115
v 142.80107909335391 60 -122.00869595335105
v 176.36622653508638 60 -123.53438447342978
f 17 18 19 20
g Joint_1_2
v 108.53333333333333 60 -292.5333333333333
v 92.533333333333331 60 -292.5333333333333
v 92.533333333333331 60 -236.53333333333333
v 116.53333333333333 60 -236.53333333333333
f 21 22 23 24
g Joint_2_2
v 117.43589743589743 60 -224.2051282051282
v 93.435897435897431 60 -224.2051282051282
v 93.435897435897431 60 -176.2051282051282
v 125.43589743589743 60 -184.2051282051282
f 25 26 27 28
g Joint_3_2
v 125.84073843522162 60 -172.60443059016478
v 93.840738435221624 60 -164.60443059016478
v 82.575521135956166 60 -119.72873889474363
v 132.59537761047932 60 -122.00236873449468
f 29 30 31 32
g Joint_1_3
v 57.610062893081761 60 -301.1823899371069
v 33.610062893081761 60 -293.1823899371069
v 33.610062893081761 60 -237.1823899371069
v 65.610062893081761 60 -237.1823899371069
f 33 34 35 36
g Joint_2_3
v 66 60 -224
v 34 60 -224
v 34 60 -176
v 66 60 -176
f 37 38 39 40
g Joint_3_3
v 66.254706193844783 59.999999999999993 -164.14160395792348
v 34.254706193844783 59.999999999999993 -164.14160395792348
v 33.879304513030192 59.999999999999993 -117.57908569970462
v 70.989488894579324 59.999999999999993 -119.26591226250233
f 41 42 43 44
g Joint_1_4
v -2.4761904761904763 60 -283.71428571428567
v -26.476190476190474 60 -283.71428571428567
v -26.476190476190474 60 -235.71428571428569
v 5.5238095238095237 60 -235.71428571428569
f 45 46 47 48
g Joint_2_4
v 6.9056603773584904 60 -223.44654088050314
v -25.09433962264151 60 -223.44654088050314
v -17.09433962264151 60 -167.44654088050314
v 14.90566037735849 60 -175.44654088050314
f 49 50 51 52
g Joint_3_4
v 17.065804205993182 60 -163.64729883727057
v -14.934195794006818 60 -155.64729883727057
v -6.9341957940068193 60 -115.64729883727055
v 24.690402525178587 60 -117.0847805790517
f 53 54 55 56
g Joint_1_5
v -98.954954954954957 60 -132.30630630630628
v -114.95495495495496 60 -116.3063063063063
v -90.954954954954957 60 -68.306306306306297
v -74.954954954954957 60 -92.306306306306297
f 57 58 59 60
g Joint_2_5
v -63.07692307692308 60 -79.333333333333329
v -79.07692307692308 60 -55.333333333333329
v -7.0769230769230766 60 24.666666666666668
v -7.0769230769230766 60 -55.333333333333329
f 61 62 63 64
g Palm_2
v 154.11657559198542 60 56.834244080145723
v 170.11657559198542 60 -23.165755919854281
v 18.116575591985423 60 -47.165755919854277
v 18.116575591985423 60 32.834244080145723
f 65 66 67 68
