# Rhino

g object_1
v 28 6 -28
v 27 6 -28
v 27 6 -29
v 28 6 -29
v 28 12 -29
v 28 12 -28
v 27 12 -29
v 27 12 -28
f 1 2 3 4
f 1 4 5 6
f 4 3 7 5
f 3 2 8 7
f 2 1 6 8
f 6 5 7 8
g object_2
v 22 6 -28
v 22 6 -29
v 23 6 -29
v 23 6 -28
v 22 12 -28
v 22 12 -29
v 23 12 -29
v 23 12 -28
f 9 10 11 12
f 9 13 14 10
f 10 14 15 11
f 11 15 16 12
f 12 16 13 9
f 13 16 15 14
g object_3
v 33 6 -25
v 32 6 -25
v 32 6 -26
v 33 6 -26
v 33 12 -26
v 33 12 -25
v 32 12 -26
v 32 12 -25
f 17 18 19 20
f 17 20 21 22
f 20 19 23 21
f 19 18 24 23
f 18 17 22 24
f 22 21 23 24
g object_4
v 17 6 -25
v 17 6 -26
v 18 6 -26
v 18 6 -25
v 17 12 -25
v 17 12 -26
v 18 12 -26
v 18 12 -25
f 25 26 27 28
f 25 29 30 26
f 26 30 31 27
f 27 31 32 28
f 28 32 29 25
f 29 32 31 30
g object_5
v 10 6 -13
v 10 6 -12
v 9 6 -12
v 9 6 -13
v 9 12 -13
v 10 12 -13
v 9 12 -12
v 10 12 -12
f 33 34 35 36
f 33 36 37 38
f 36 35 39 37
f 35 34 40 39
f 34 33 38 40
f 38 37 39 40
g object_6
v 13 6 -18
v 13 6 -17
v 12 6 -17
v 12 6 -18
v 12 12 -18
v 13 12 -18
v 12 12 -17
v 13 12 -17
f 41 42 43 44
f 41 44 45 46
f 44 43 47 45
f 43 42 48 47
f 42 41 46 48
f 46 45 47 48
g object_7
v 10 6 -7
v 9 6 -7
v 9 6 -8
v 10 6 -8
v 10 12 -7
v 9 12 -7
v 9 12 -8
v 10 12 -8
f 49 50 51 52
f 49 53 54 50
f 50 54 55 51
f 51 55 56 52
f 52 56 53 49
f 53 56 55 54
g object_8
v 13 6 -2
v 12 6 -2
v 12 6 -3
v 13 6 -3
v 13 12 -2
v 12 12 -2
v 12 12 -3
v 13 12 -3
f 57 58 59 60
f 57 61 62 58
f 58 62 63 59
f 59 63 64 60
f 60 64 61 57
f 61 64 63 62
g object_9
v 40 6 -13
v 41 6 -13
v 41 6 -12
v 40 6 -12
v 40 12 -13
v 41 12 -13
v 41 12 -12
v 40 12 -12
f 65 66 67 68
f 65 69 70 66
f 66 70 71 67
f 67 71 72 68
f 68 72 69 65
f 69 72 71 70
g object_10
v 37 6 -18
v 38 6 -18
v 38 6 -17
v 37 6 -17
v 37 12 -18
v 38 12 -18
v 38 12 -17
v 37 12 -17
f 73 74 75 76
f 73 77 78 74
f 74 78 79 75
f 75 79 80 76
f 76 80 77 73
f 77 80 79 78
g object_11
v 40 6 -7
v 40 6 -8
v 41 6 -8
v 41 6 -7
v 41 12 -7
v 40 12 -7
v 41 12 -8
v 40 12 -8
f 81 82 83 84
f 81 84 85 86
f 84 83 87 85
f 83 82 88 87
f 82 81 86 88
f 86 85 87 88
g object_12
v 37 6 -2
v 37 6 -3
v 38 6 -3
v 38 6 -2
v 38 12 -2
v 37 12 -2
v 38 12 -3
v 37 12 -3
f 89 90 91 92
f 89 92 93 94
f 92 91 95 93
f 91 90 96 95
f 90 89 94 96
f 94 93 95 96
