# Rhino

g object_1
v 30 6 -20
v 35 6 -20
v 35 6 0
v 32 6 0
v 32 6 -17
v 18 6 -17
v 18 6 0
v 15 6 0
v 15 6 -20
v 20 6 -20
v 20 6 -23
v 30 6 -23
v 30 18 -20
v 35 18 -20
v 35 18 0
v 32 18 0
v 32 18 -17
v 18 18 -17
v 18 18 0
v 15 18 0
v 15 18 -20
v 20 18 -20
v 20 18 -23
v 30 18 -23
v 12 18 0
v 12 18 -25
v 38 18 -25
v 38 18 0
v 35 24 0
v 35 24 -20
v 15 24 -20
v 15 24 0
v 12 24 0
v 12 24 -25
v 38 24 -25
v 38 24 0
v 30 24 -20
v 32 24 0
v 32 24 -17
v 18 24 -17
v 18 24 0
v 20 24 -20
v 20 24 -23
v 30 24 -23
v 30 30 -20
v 35 30 -20
v 35 30 0
v 32 30 0
v 32 30 -17
v 18 30 -17
v 18 30 0
v 15 30 0
v 15 30 -20
v 20 30 -20
v 20 30 -23
v 30 30 -23
v 12 30 0
v 12 30 -25
v 38 30 -25
v 38 30 0
v 35 36 0
v 35 36 -20
v 15 36 -20
v 15 36 0
v 12 36 0
v 12 36 -25
v 38 36 -25
v 38 36 0
f 10 11 12 1 2 3 4 5 6 7 8 9
f 13 24 23 22 21 20 19 18 17 16 15 14
f 25 26 27 28 15 14 21 20
f 33 32 31 30 29 36 35 34
f 42 43 44 37 30 29 38 39 40 41 32 31
f 45 56 55 54 53 52 51 50 49 48 47 46
f 57 58 59 60 47 46 53 52
f 65 64 63 62 61 68 67 66
f 2 1 13 14
f 3 2 14 15
f 4 3 15 16
f 5 4 16 17
f 6 5 17 18
f 7 6 18 19
f 8 7 19 20
f 9 8 20 21
f 10 9 21 22
f 11 10 22 23
f 12 11 23 24
f 1 12 24 13
f 14 15 29 30
f 21 14 30 31
f 20 21 31 32
f 25 20 32 33
f 26 25 33 34
f 27 26 34 35
f 28 27 35 36
f 15 28 36 29
f 30 37 45 46
f 29 30 46 47
f 38 29 47 48
f 39 38 48 49
f 40 39 49 50
f 41 40 50 51
f 32 41 51 52
f 31 32 52 53
f 42 31 53 54
f 43 42 54 55
f 44 43 55 56
f 37 44 56 45
f 46 47 61 62
f 53 46 62 63
f 52 53 63 64
f 57 52 64 65
f 58 57 65 66
f 59 58 66 67
f 60 59 67 68
f 47 60 68 61
