# Rhino

g object_1
v 0 3 5
v 0 0 5
v 4.9999999999999964 0 5
v 4.9999999999999964 3 5
v 4.9999999999999964 0 0
v 4.9999999999999964 3 0
v 0 0 0
v 0 3 0
f 1 2 3 4
f 4 3 5 6
f 6 5 7 8
f 8 7 2 1
f 1 4 6 8
f 2 7 5 3
g object_2
v 4.9999999999999964 3 5
v 4.9999999999999964 0 5
v 9.9999999999999929 0 5
v 9.9999999999999929 3 5
v 9.9999999999999929 0 0
v 9.9999999999999929 3 0
v 4.9999999999999964 0 0
v 4.9999999999999964 3 0
f 9 10 11 12
f 12 11 13 14
f 14 13 15 16
f 16 15 10 9
f 9 12 14 16
f 10 15 13 11
g object_3
v 9.9999999999999929 3 5
v 9.9999999999999929 0 5
v 14.999999999999989 0 5
v 14.999999999999989 3 5
v 14.999999999999989 0 0
v 14.999999999999989 3 0
v 9.9999999999999929 0 0
v 9.9999999999999929 3 0
f 17 18 19 20
f 20 19 21 22
f 22 21 23 24
f 24 23 18 17
f 17 20 22 24
f 18 23 21 19
g object_4
v 14.999999999999989 3 5
v 14.999999999999989 0 5
v 19.999999999999986 0 5
v 19.999999999999986 3 5
v 19.999999999999986 0 0
v 19.999999999999986 3 0
v 14.999999999999989 0 0
v 14.999999999999989 3 0
f 25 26 27 28
f 28 27 29 30
f 30 29 31 32
f 32 31 26 25
f 25 28 30 32
f 26 31 29 27
g object_5
v 19.999999999999986 3 5
v 19.999999999999986 0 5
v 24.999999999999982 0 5
v 24.999999999999982 3 5
v 24.999999999999982 0 0
v 24.999999999999982 3 0
v 19.999999999999986 0 0
v 19.999999999999986 3 0
f 33 34 35 36
f 36 35 37 38
f 38 37 39 40
f 40 39 34 33
f 33 36 38 40
f 34 39 37 35
g object_6
v 24.999999999999982 3 5
v 24.999999999999982 0 5
v 29.999999999999979 0 5
v 29.999999999999979 3 5
v 29.999999999999979 0 0
v 29.999999999999979 3 0
v 24.999999999999982 0 0
v 24.999999999999982 3 0
f 41 42 43 44
f 44 43 45 46
f 46 45 47 48
f 48 47 42 41
f 41 44 46 48
f 42 47 45 43
g object_7
v 29.999999999999979 3 5
v 29.999999999999979 0 5
v 34.999999999999972 0 5
v 34.999999999999972 3 5
v 34.999999999999972 0 0
v 34.999999999999972 3 0
v 29.999999999999979 0 0
v 29.999999999999979 3 0
f 49 50 51 52
f 52 51 53 54
f 54 53 55 56
f 56 55 50 49
f 49 52 54 56
f 50 55 53 51
g object_8
v 34.999999999999972 3 5
v 34.999999999999972 0 5
v 39.999999999999972 0 5
v 39.999999999999972 3 5
v 39.999999999999972 0 0
v 39.999999999999972 3 0
v 34.999999999999972 0 0
v 34.999999999999972 3 0
f 57 58 59 60
f 60 59 61 62
f 62 61 63 64
f 64 63 58 57
f 57 60 62 64
f 58 63 61 59
g object_9
v 39.999999999999972 3 5
v 39.999999999999972 0 5
v 44.999999999999972 0 5
v 44.999999999999972 3 5
v 44.999999999999972 0 0
v 44.999999999999972 3 0
v 39.999999999999972 0 0
v 39.999999999999972 3 0
f 65 66 67 68
f 68 67 69 70
f 70 69 71 72
f 72 71 66 65
f 65 68 70 72
f 66 71 69 67
g object_10
v 44.999999999999972 3 5
v 44.999999999999972 0 5
v 49.999999999999972 0 5
v 49.999999999999972 3 5
v 49.999999999999972 0 0
v 49.999999999999972 3 0
v 44.999999999999972 0 0
v 44.999999999999972 3 0
f 73 74 75 76
f 76 75 77 78
f 78 77 79 80
f 80 79 74 73
f 73 76 78 80
f 74 79 77 75
g object_11
v 0 3 0
v 0 0 0
v 4.9999999999999964 0 0
v 4.9999999999999964 3 0
v 4.9999999999999964 0 -5
v 4.9999999999999964 3 -5
v 0 0 -5
v 0 3 -5
f 81 82 83 84
f 84 83 85 86
f 86 85 87 88
f 88 87 82 81
f 81 84 86 88
f 82 87 85 83
g object_12
v 4.9999999999999964 3 0
v 4.9999999999999964 0 0
v 9.9999999999999929 0 0
v 9.9999999999999929 3 0
v 9.9999999999999929 0 -5
v 9.9999999999999929 3 -5
v 4.9999999999999964 0 -5
v 4.9999999999999964 3 -5
f 89 90 91 92
f 92 91 93 94
f 94 93 95 96
f 96 95 90 89
f 89 92 94 96
f 90 95 93 91
g object_13
v 9.9999999999999929 3 0
v 9.9999999999999929 0 0
v 14.999999999999989 0 0
v 14.999999999999989 3 0
v 14.999999999999989 0 -5
v 14.999999999999989 3 -5
v 9.9999999999999929 0 -5
v 9.9999999999999929 3 -5
f 97 98 99 100
f 100 99 101 102
f 102 101 103 104
f 104 103 98 97
f 97 100 102 104
f 98 103 101 99
g object_14
v 14.999999999999989 3 0
v 14.999999999999989 0 0
v 19.999999999999986 0 0
v 19.999999999999986 3 0
v 19.999999999999986 0 -5
v 19.999999999999986 3 -5
v 14.999999999999989 0 -5
v 14.999999999999989 3 -5
f 105 106 107 108
f 108 107 109 110
f 110 109 111 112
f 112 111 106 105
f 105 108 110 112
f 106 111 109 107
g object_15
v 19.999999999999986 3 0
v 19.999999999999986 0 0
v 24.999999999999982 0 0
v 24.999999999999982 3 0
v 24.999999999999982 0 -5
v 24.999999999999982 3 -5
v 19.999999999999986 0 -5
v 19.999999999999986 3 -5
f 113 114 115 116
f 116 115 117 118
f 118 117 119 120
f 120 119 114 113
f 113 116 118 120
f 114 119 117 115
g object_16
v 24.999999999999982 3 0
v 24.999999999999982 0 0
v 29.999999999999979 0 0
v 29.999999999999979 3 0
v 29.999999999999979 0 -5
v 29.999999999999979 3 -5
v 24.999999999999982 0 -5
v 24.999999999999982 3 -5
f 121 122 123 124
f 124 123 125 126
f 126 125 127 128
f 128 127 122 121
f 121 124 126 128
f 122 127 125 123
g object_17
v 29.999999999999979 3 0
v 29.999999999999979 0 0
v 34.999999999999972 0 0
v 34.999999999999972 3 0
v 34.999999999999972 0 -5
v 34.999999999999972 3 -5
v 29.999999999999979 0 -5
v 29.999999999999979 3 -5
f 129 130 131 132
f 132 131 133 134
f 134 133 135 136
f 136 135 130 129
f 129 132 134 136
f 130 135 133 131
g object_18
v 34.999999999999972 3 0
v 34.999999999999972 0 0
v 39.999999999999972 0 0
v 39.999999999999972 3 0
v 39.999999999999972 0 -5
v 39.999999999999972 3 -5
v 34.999999999999972 0 -5
v 34.999999999999972 3 -5
f 137 138 139 140
f 140 139 141 142
f 142 141 143 144
f 144 143 138 137
f 137 140 142 144
f 138 143 141 139
g object_19
v 39.999999999999972 3 0
v 39.999999999999972 0 0
v 44.999999999999972 0 0
v 44.999999999999972 3 0
v 44.999999999999972 0 -5
v 44.999999999999972 3 -5
v 39.999999999999972 0 -5
v 39.999999999999972 3 -5
f 145 146 147 148
f 148 147 149 150
f 150 149 151 152
f 152 151 146 145
f 145 148 150 152
f 146 151 149 147
g object_20
v 44.999999999999972 3 0
v 44.999999999999972 0 0
v 49.999999999999972 0 0
v 49.999999999999972 3 0
v 49.999999999999972 0 -5
v 49.999999999999972 3 -5
v 44.999999999999972 0 -5
v 44.999999999999972 3 -5
f 153 154 155 156
f 156 155 157 158
f 158 157 159 160
f 160 159 154 153
f 153 156 158 160
f 154 159 157 155
g object_21
v 0 3 -5
v 0 0 -5
v 4.9999999999999964 0 -5
v 4.9999999999999964 3 -5
v 4.9999999999999964 0 -10
v 4.9999999999999964 3 -10
v 0 0 -10
v 0 3 -10
f 161 162 163 164
f 164 163 165 166
f 166 165 167 168
f 168 167 162 161
f 161 164 166 168
f 162 167 165 163
g object_22
v 4.9999999999999964 3 -5
v 4.9999999999999964 0 -5
v 9.9999999999999929 0 -5
v 9.9999999999999929 3 -5
v 9.9999999999999929 0 -10
v 9.9999999999999929 3 -10
v 4.9999999999999964 0 -10
v 4.9999999999999964 3 -10
f 169 170 171 172
f 172 171 173 174
f 174 173 175 176
f 176 175 170 169
f 169 172 174 176
f 170 175 173 171
g object_23
v 9.9999999999999929 3 -5
v 9.9999999999999929 0 -5
v 14.999999999999989 0 -5
v 14.999999999999989 3 -5
v 14.999999999999989 0 -10
v 14.999999999999989 3 -10
v 9.9999999999999929 0 -10
v 9.9999999999999929 3 -10
f 177 178 179 180
f 180 179 181 182
f 182 181 183 184
f 184 183 178 177
f 177 180 182 184
f 178 183 181 179
g object_24
v 14.999999999999989 3 -5
v 14.999999999999989 0 -5
v 19.999999999999986 0 -5
v 19.999999999999986 3 -5
v 19.999999999999986 0 -10
v 19.999999999999986 3 -10
v 14.999999999999989 0 -10
v 14.999999999999989 3 -10
f 185 186 187 188
f 188 187 189 190
f 190 189 191 192
f 192 191 186 185
f 185 188 190 192
f 186 191 189 187
g object_25
v 19.999999999999986 3 -5
v 19.999999999999986 0 -5
v 24.999999999999982 0 -5
v 24.999999999999982 3 -5
v 24.999999999999982 0 -10
v 24.999999999999982 3 -10
v 19.999999999999986 0 -10
v 19.999999999999986 3 -10
f 193 194 195 196
f 196 195 197 198
f 198 197 199 200
f 200 199 194 193
f 193 196 198 200
f 194 199 197 195
g object_26
v 24.999999999999982 3 -5
v 24.999999999999982 0 -5
v 29.999999999999979 0 -5
v 29.999999999999979 3 -5
v 29.999999999999979 0 -10
v 29.999999999999979 3 -10
v 24.999999999999982 0 -10
v 24.999999999999982 3 -10
f 201 202 203 204
f 204 203 205 206
f 206 205 207 208
f 208 207 202 201
f 201 204 206 208
f 202 207 205 203
g object_27
v 29.999999999999979 3 -5
v 29.999999999999979 0 -5
v 34.999999999999972 0 -5
v 34.999999999999972 3 -5
v 34.999999999999972 0 -10
v 34.999999999999972 3 -10
v 29.999999999999979 0 -10
v 29.999999999999979 3 -10
f 209 210 211 212
f 212 211 213 214
f 214 213 215 216
f 216 215 210 209
f 209 212 214 216
f 210 215 213 211
g object_28
v 34.999999999999972 3 -5
v 34.999999999999972 0 -5
v 39.999999999999972 0 -5
v 39.999999999999972 3 -5
v 39.999999999999972 0 -10
v 39.999999999999972 3 -10
v 34.999999999999972 0 -10
v 34.999999999999972 3 -10
f 217 218 219 220
f 220 219 221 222
f 222 221 223 224
f 224 223 218 217
f 217 220 222 224
f 218 223 221 219
g object_29
v 39.999999999999972 3 -5
v 39.999999999999972 0 -5
v 44.999999999999972 0 -5
v 44.999999999999972 3 -5
v 44.999999999999972 0 -10
v 44.999999999999972 3 -10
v 39.999999999999972 0 -10
v 39.999999999999972 3 -10
f 225 226 227 228
f 228 227 229 230
f 230 229 231 232
f 232 231 226 225
f 225 228 230 232
f 226 231 229 227
g object_30
v 44.999999999999972 3 -5
v 44.999999999999972 0 -5
v 49.999999999999972 0 -5
v 49.999999999999972 3 -5
v 49.999999999999972 0 -10
v 49.999999999999972 3 -10
v 44.999999999999972 0 -10
v 44.999999999999972 3 -10
f 233 234 235 236
f 236 235 237 238
f 238 237 239 240
f 240 239 234 233
f 233 236 238 240
f 234 239 237 235
g object_31
v 0 3 -10
v 0 0 -10
v 4.9999999999999964 0 -10
v 4.9999999999999964 3 -10
v 4.9999999999999964 0 -15
v 4.9999999999999964 3 -15
v 0 0 -15
v 0 3 -15
f 241 242 243 244
f 244 243 245 246
f 246 245 247 248
f 248 247 242 241
f 241 244 246 248
f 242 247 245 243
g object_32
v 4.9999999999999964 3 -10
v 4.9999999999999964 0 -10
v 9.9999999999999929 0 -10
v 9.9999999999999929 3 -10
v 9.9999999999999929 0 -15
v 9.9999999999999929 3 -15
v 4.9999999999999964 0 -15
v 4.9999999999999964 3 -15
f 249 250 251 252
f 252 251 253 254
f 254 253 255 256
f 256 255 250 249
f 249 252 254 256
f 250 255 253 251
g object_33
v 9.9999999999999929 3 -10
v 9.9999999999999929 0 -10
v 14.999999999999989 0 -10
v 14.999999999999989 3 -10
v 14.999999999999989 0 -15
v 14.999999999999989 3 -15
v 9.9999999999999929 0 -15
v 9.9999999999999929 3 -15
f 257 258 259 260
f 260 259 261 262
f 262 261 263 264
f 264 263 258 257
f 257 260 262 264
f 258 263 261 259
g object_34
v 14.999999999999989 3 -10
v 14.999999999999989 0 -10
v 19.999999999999986 0 -10
v 19.999999999999986 3 -10
v 19.999999999999986 0 -15
v 19.999999999999986 3 -15
v 14.999999999999989 0 -15
v 14.999999999999989 3 -15
f 265 266 267 268
f 268 267 269 270
f 270 269 271 272
f 272 271 266 265
f 265 268 270 272
f 266 271 269 267
g object_35
v 19.999999999999986 3 -10
v 19.999999999999986 0 -10
v 24.999999999999982 0 -10
v 24.999999999999982 3 -10
v 24.999999999999982 0 -15
v 24.999999999999982 3 -15
v 19.999999999999986 0 -15
v 19.999999999999986 3 -15
f 273 274 275 276
f 276 275 277 278
f 278 277 279 280
f 280 279 274 273
f 273 276 278 280
f 274 279 277 275
g object_36
v 24.999999999999982 3 -10
v 24.999999999999982 0 -10
v 29.999999999999979 0 -10
v 29.999999999999979 3 -10
v 29.999999999999979 0 -15
v 29.999999999999979 3 -15
v 24.999999999999982 0 -15
v 24.999999999999982 3 -15
f 281 282 283 284
f 284 283 285 286
f 286 285 287 288
f 288 287 282 281
f 281 284 286 288
f 282 287 285 283
g object_37
v 29.999999999999979 3 -10
v 29.999999999999979 0 -10
v 34.999999999999972 0 -10
v 34.999999999999972 3 -10
v 34.999999999999972 0 -15
v 34.999999999999972 3 -15
v 29.999999999999979 0 -15
v 29.999999999999979 3 -15
f 289 290 291 292
f 292 291 293 294
f 294 293 295 296
f 296 295 290 289
f 289 292 294 296
f 290 295 293 291
g object_38
v 34.999999999999972 3 -10
v 34.999999999999972 0 -10
v 39.999999999999972 0 -10
v 39.999999999999972 3 -10
v 39.999999999999972 0 -15
v 39.999999999999972 3 -15
v 34.999999999999972 0 -15
v 34.999999999999972 3 -15
f 297 298 299 300
f 300 299 301 302
f 302 301 303 304
f 304 303 298 297
f 297 300 302 304
f 298 303 301 299
g object_39
v 39.999999999999972 3 -10
v 39.999999999999972 0 -10
v 44.999999999999972 0 -10
v 44.999999999999972 3 -10
v 44.999999999999972 0 -15
v 44.999999999999972 3 -15
v 39.999999999999972 0 -15
v 39.999999999999972 3 -15
f 305 306 307 308
f 308 307 309 310
f 310 309 311 312
f 312 311 306 305
f 305 308 310 312
f 306 311 309 307
g object_40
v 44.999999999999972 3 -10
v 44.999999999999972 0 -10
v 49.999999999999972 0 -10
v 49.999999999999972 3 -10
v 49.999999999999972 0 -15
v 49.999999999999972 3 -15
v 44.999999999999972 0 -15
v 44.999999999999972 3 -15
f 313 314 315 316
f 316 315 317 318
f 318 317 319 320
f 320 319 314 313
f 313 316 318 320
f 314 319 317 315
g object_41
v 0 3 -15
v 0 0 -15
v 4.9999999999999964 0 -15
v 4.9999999999999964 3 -15
v 4.9999999999999964 0 -20
v 4.9999999999999964 3 -20
v 0 0 -20
v 0 3 -20
f 321 322 323 324
f 324 323 325 326
f 326 325 327 328
f 328 327 322 321
f 321 324 326 328
f 322 327 325 323
g object_42
v 4.9999999999999964 3 -15
v 4.9999999999999964 0 -15
v 9.9999999999999929 0 -15
v 9.9999999999999929 3 -15
v 9.9999999999999929 0 -20
v 9.9999999999999929 3 -20
v 4.9999999999999964 0 -20
v 4.9999999999999964 3 -20
f 329 330 331 332
f 332 331 333 334
f 334 333 335 336
f 336 335 330 329
f 329 332 334 336
f 330 335 333 331
g object_43
v 9.9999999999999929 3 -15
v 9.9999999999999929 0 -15
v 14.999999999999989 0 -15
v 14.999999999999989 3 -15
v 14.999999999999989 0 -20
v 14.999999999999989 3 -20
v 9.9999999999999929 0 -20
v 9.9999999999999929 3 -20
f 337 338 339 340
f 340 339 341 342
f 342 341 343 344
f 344 343 338 337
f 337 340 342 344
f 338 343 341 339
g object_44
v 14.999999999999989 3 -15
v 14.999999999999989 0 -15
v 19.999999999999986 0 -15
v 19.999999999999986 3 -15
v 19.999999999999986 0 -20
v 19.999999999999986 3 -20
v 14.999999999999989 0 -20
v 14.999999999999989 3 -20
f 345 346 347 348
f 348 347 349 350
f 350 349 351 352
f 352 351 346 345
f 345 348 350 352
f 346 351 349 347
g object_45
v 19.999999999999986 3 -15
v 19.999999999999986 0 -15
v 24.999999999999982 0 -15
v 24.999999999999982 3 -15
v 24.999999999999982 0 -20
v 24.999999999999982 3 -20
v 19.999999999999986 0 -20
v 19.999999999999986 3 -20
f 353 354 355 356
f 356 355 357 358
f 358 357 359 360
f 360 359 354 353
f 353 356 358 360
f 354 359 357 355
g object_46
v 24.999999999999982 3 -15
v 24.999999999999982 0 -15
v 29.999999999999979 0 -15
v 29.999999999999979 3 -15
v 29.999999999999979 0 -20
v 29.999999999999979 3 -20
v 24.999999999999982 0 -20
v 24.999999999999982 3 -20
f 361 362 363 364
f 364 363 365 366
f 366 365 367 368
f 368 367 362 361
f 361 364 366 368
f 362 367 365 363
g object_47
v 29.999999999999979 3 -15
v 29.999999999999979 0 -15
v 34.999999999999972 0 -15
v 34.999999999999972 3 -15
v 34.999999999999972 0 -20
v 34.999999999999972 3 -20
v 29.999999999999979 0 -20
v 29.999999999999979 3 -20
f 369 370 371 372
f 372 371 373 374
f 374 373 375 376
f 376 375 370 369
f 369 372 374 376
f 370 375 373 371
g object_48
v 34.999999999999972 3 -15
v 34.999999999999972 0 -15
v 39.999999999999972 0 -15
v 39.999999999999972 3 -15
v 39.999999999999972 0 -20
v 39.999999999999972 3 -20
v 34.999999999999972 0 -20
v 34.999999999999972 3 -20
f 377 378 379 380
f 380 379 381 382
f 382 381 383 384
f 384 383 378 377
f 377 380 382 384
f 378 383 381 379
g object_49
v 39.999999999999972 3 -15
v 39.999999999999972 0 -15
v 44.999999999999972 0 -15
v 44.999999999999972 3 -15
v 44.999999999999972 0 -20
v 44.999999999999972 3 -20
v 39.999999999999972 0 -20
v 39.999999999999972 3 -20
f 385 386 387 388
f 388 387 389 390
f 390 389 391 392
f 392 391 386 385
f 385 388 390 392
f 386 391 389 387
g object_50
v 44.999999999999972 3 -15
v 44.999999999999972 0 -15
v 49.999999999999972 0 -15
v 49.999999999999972 3 -15
v 49.999999999999972 0 -20
v 49.999999999999972 3 -20
v 44.999999999999972 0 -20
v 44.999999999999972 3 -20
f 393 394 395 396
f 396 395 397 398
f 398 397 399 400
f 400 399 394 393
f 393 396 398 400
f 394 399 397 395
g object_51
v 0 3 -20
v 0 0 -20
v 4.9999999999999964 0 -20
v 4.9999999999999964 3 -20
v 4.9999999999999964 0 -25
v 4.9999999999999964 3 -25
v 0 0 -25
v 0 3 -25
f 401 402 403 404
f 404 403 405 406
f 406 405 407 408
f 408 407 402 401
f 401 404 406 408
f 402 407 405 403
g object_52
v 4.9999999999999964 3 -20
v 4.9999999999999964 0 -20
v 9.9999999999999929 0 -20
v 9.9999999999999929 3 -20
v 9.9999999999999929 0 -25
v 9.9999999999999929 3 -25
v 4.9999999999999964 0 -25
v 4.9999999999999964 3 -25
f 409 410 411 412
f 412 411 413 414
f 414 413 415 416
f 416 415 410 409
f 409 412 414 416
f 410 415 413 411
g object_53
v 9.9999999999999929 3 -20
v 9.9999999999999929 0 -20
v 14.999999999999989 0 -20
v 14.999999999999989 3 -20
v 14.999999999999989 0 -25
v 14.999999999999989 3 -25
v 9.9999999999999929 0 -25
v 9.9999999999999929 3 -25
f 417 418 419 420
f 420 419 421 422
f 422 421 423 424
f 424 423 418 417
f 417 420 422 424
f 418 423 421 419
g object_54
v 14.999999999999989 3 -20
v 14.999999999999989 0 -20
v 19.999999999999986 0 -20
v 19.999999999999986 3 -20
v 19.999999999999986 0 -25
v 19.999999999999986 3 -25
v 14.999999999999989 0 -25
v 14.999999999999989 3 -25
f 425 426 427 428
f 428 427 429 430
f 430 429 431 432
f 432 431 426 425
f 425 428 430 432
f 426 431 429 427
g object_55
v 19.999999999999986 3 -20
v 19.999999999999986 0 -20
v 24.999999999999982 0 -20
v 24.999999999999982 3 -20
v 24.999999999999982 0 -25
v 24.999999999999982 3 -25
v 19.999999999999986 0 -25
v 19.999999999999986 3 -25
f 433 434 435 436
f 436 435 437 438
f 438 437 439 440
f 440 439 434 433
f 433 436 438 440
f 434 439 437 435
g object_56
v 24.999999999999982 3 -20
v 24.999999999999982 0 -20
v 29.999999999999979 0 -20
v 29.999999999999979 3 -20
v 29.999999999999979 0 -25
v 29.999999999999979 3 -25
v 24.999999999999982 0 -25
v 24.999999999999982 3 -25
f 441 442 443 444
f 444 443 445 446
f 446 445 447 448
f 448 447 442 441
f 441 444 446 448
f 442 447 445 443
g object_57
v 29.999999999999979 3 -20
v 29.999999999999979 0 -20
v 34.999999999999972 0 -20
v 34.999999999999972 3 -20
v 34.999999999999972 0 -25
v 34.999999999999972 3 -25
v 29.999999999999979 0 -25
v 29.999999999999979 3 -25
f 449 450 451 452
f 452 451 453 454
f 454 453 455 456
f 456 455 450 449
f 449 452 454 456
f 450 455 453 451
g object_58
v 34.999999999999972 3 -20
v 34.999999999999972 0 -20
v 39.999999999999972 0 -20
v 39.999999999999972 3 -20
v 39.999999999999972 0 -25
v 39.999999999999972 3 -25
v 34.999999999999972 0 -25
v 34.999999999999972 3 -25
f 457 458 459 460
f 460 459 461 462
f 462 461 463 464
f 464 463 458 457
f 457 460 462 464
f 458 463 461 459
g object_59
v 39.999999999999972 3 -20
v 39.999999999999972 0 -20
v 44.999999999999972 0 -20
v 44.999999999999972 3 -20
v 44.999999999999972 0 -25
v 44.999999999999972 3 -25
v 39.999999999999972 0 -25
v 39.999999999999972 3 -25
f 465 466 467 468
f 468 467 469 470
f 470 469 471 472
f 472 471 466 465
f 465 468 470 472
f 466 471 469 467
g object_60
v 44.999999999999972 3 -20
v 44.999999999999972 0 -20
v 49.999999999999972 0 -20
v 49.999999999999972 3 -20
v 49.999999999999972 0 -25
v 49.999999999999972 3 -25
v 44.999999999999972 0 -25
v 44.999999999999972 3 -25
f 473 474 475 476
f 476 475 477 478
f 478 477 479 480
f 480 479 474 473
f 473 476 478 480
f 474 479 477 475
g object_61
v 0 3 -25
v 0 0 -25
v 4.9999999999999964 0 -25
v 4.9999999999999964 3 -25
v 4.9999999999999964 0 -30
v 4.9999999999999964 3 -30
v 0 0 -30
v 0 3 -30
f 481 482 483 484
f 484 483 485 486
f 486 485 487 488
f 488 487 482 481
f 481 484 486 488
f 482 487 485 483
g object_62
v 4.9999999999999964 3 -25
v 4.9999999999999964 0 -25
v 9.9999999999999929 0 -25
v 9.9999999999999929 3 -25
v 9.9999999999999929 0 -30
v 9.9999999999999929 3 -30
v 4.9999999999999964 0 -30
v 4.9999999999999964 3 -30
f 489 490 491 492
f 492 491 493 494
f 494 493 495 496
f 496 495 490 489
f 489 492 494 496
f 490 495 493 491
g object_63
v 9.9999999999999929 3 -25
v 9.9999999999999929 0 -25
v 14.999999999999989 0 -25
v 14.999999999999989 3 -25
v 14.999999999999989 0 -30
v 14.999999999999989 3 -30
v 9.9999999999999929 0 -30
v 9.9999999999999929 3 -30
f 497 498 499 500
f 500 499 501 502
f 502 501 503 504
f 504 503 498 497
f 497 500 502 504
f 498 503 501 499
g object_64
v 14.999999999999989 3 -25
v 14.999999999999989 0 -25
v 19.999999999999986 0 -25
v 19.999999999999986 3 -25
v 19.999999999999986 0 -30
v 19.999999999999986 3 -30
v 14.999999999999989 0 -30
v 14.999999999999989 3 -30
f 505 506 507 508
f 508 507 509 510
f 510 509 511 512
f 512 511 506 505
f 505 508 510 512
f 506 511 509 507
g object_65
v 19.999999999999986 3 -25
v 19.999999999999986 0 -25
v 24.999999999999982 0 -25
v 24.999999999999982 3 -25
v 24.999999999999982 0 -30
v 24.999999999999982 3 -30
v 19.999999999999986 0 -30
v 19.999999999999986 3 -30
f 513 514 515 516
f 516 515 517 518
f 518 517 519 520
f 520 519 514 513
f 513 516 518 520
f 514 519 517 515
g object_66
v 24.999999999999982 3 -25
v 24.999999999999982 0 -25
v 29.999999999999979 0 -25
v 29.999999999999979 3 -25
v 29.999999999999979 0 -30
v 29.999999999999979 3 -30
v 24.999999999999982 0 -30
v 24.999999999999982 3 -30
f 521 522 523 524
f 524 523 525 526
f 526 525 527 528
f 528 527 522 521
f 521 524 526 528
f 522 527 525 523
g object_67
v 29.999999999999979 3 -25
v 29.999999999999979 0 -25
v 34.999999999999972 0 -25
v 34.999999999999972 3 -25
v 34.999999999999972 0 -30
v 34.999999999999972 3 -30
v 29.999999999999979 0 -30
v 29.999999999999979 3 -30
f 529 530 531 532
f 532 531 533 534
f 534 533 535 536
f 536 535 530 529
f 529 532 534 536
f 530 535 533 531
g object_68
v 34.999999999999972 3 -25
v 34.999999999999972 0 -25
v 39.999999999999972 0 -25
v 39.999999999999972 3 -25
v 39.999999999999972 0 -30
v 39.999999999999972 3 -30
v 34.999999999999972 0 -30
v 34.999999999999972 3 -30
f 537 538 539 540
f 540 539 541 542
f 542 541 543 544
f 544 543 538 537
f 537 540 542 544
f 538 543 541 539
g object_69
v 39.999999999999972 3 -25
v 39.999999999999972 0 -25
v 44.999999999999972 0 -25
v 44.999999999999972 3 -25
v 44.999999999999972 0 -30
v 44.999999999999972 3 -30
v 39.999999999999972 0 -30
v 39.999999999999972 3 -30
f 545 546 547 548
f 548 547 549 550
f 550 549 551 552
f 552 551 546 545
f 545 548 550 552
f 546 551 549 547
g object_70
v 44.999999999999972 3 -25
v 44.999999999999972 0 -25
v 49.999999999999972 0 -25
v 49.999999999999972 3 -25
v 49.999999999999972 0 -30
v 49.999999999999972 3 -30
v 44.999999999999972 0 -30
v 44.999999999999972 3 -30
f 553 554 555 556
f 556 555 557 558
f 558 557 559 560
f 560 559 554 553
f 553 556 558 560
f 554 559 557 555
g object_71
v 0 3 -30
v 0 0 -30
v 4.9999999999999964 0 -30
v 4.9999999999999964 3 -30
v 4.9999999999999964 0 -35
v 4.9999999999999964 3 -35
v 0 0 -35
v 0 3 -35
f 561 562 563 564
f 564 563 565 566
f 566 565 567 568
f 568 567 562 561
f 561 564 566 568
f 562 567 565 563
g object_72
v 4.9999999999999964 3 -30
v 4.9999999999999964 0 -30
v 9.9999999999999929 0 -30
v 9.9999999999999929 3 -30
v 9.9999999999999929 0 -35
v 9.9999999999999929 3 -35
v 4.9999999999999964 0 -35
v 4.9999999999999964 3 -35
f 569 570 571 572
f 572 571 573 574
f 574 573 575 576
f 576 575 570 569
f 569 572 574 576
f 570 575 573 571
g object_73
v 9.9999999999999929 3 -30
v 9.9999999999999929 0 -30
v 14.999999999999989 0 -30
v 14.999999999999989 3 -30
v 14.999999999999989 0 -35
v 14.999999999999989 3 -35
v 9.9999999999999929 0 -35
v 9.9999999999999929 3 -35
f 577 578 579 580
f 580 579 581 582
f 582 581 583 584
f 584 583 578 577
f 577 580 582 584
f 578 583 581 579
g object_74
v 14.999999999999989 3 -30
v 14.999999999999989 0 -30
v 19.999999999999986 0 -30
v 19.999999999999986 3 -30
v 19.999999999999986 0 -35
v 19.999999999999986 3 -35
v 14.999999999999989 0 -35
v 14.999999999999989 3 -35
f 585 586 587 588
f 588 587 589 590
f 590 589 591 592
f 592 591 586 585
f 585 588 590 592
f 586 591 589 587
g object_75
v 19.999999999999986 3 -30
v 19.999999999999986 0 -30
v 24.999999999999982 0 -30
v 24.999999999999982 3 -30
v 24.999999999999982 0 -35
v 24.999999999999982 3 -35
v 19.999999999999986 0 -35
v 19.999999999999986 3 -35
f 593 594 595 596
f 596 595 597 598
f 598 597 599 600
f 600 599 594 593
f 593 596 598 600
f 594 599 597 595
g object_76
v 24.999999999999982 3 -30
v 24.999999999999982 0 -30
v 29.999999999999979 0 -30
v 29.999999999999979 3 -30
v 29.999999999999979 0 -35
v 29.999999999999979 3 -35
v 24.999999999999982 0 -35
v 24.999999999999982 3 -35
f 601 602 603 604
f 604 603 605 606
f 606 605 607 608
f 608 607 602 601
f 601 604 606 608
f 602 607 605 603
g object_77
v 29.999999999999979 3 -30
v 29.999999999999979 0 -30
v 34.999999999999972 0 -30
v 34.999999999999972 3 -30
v 34.999999999999972 0 -35
v 34.999999999999972 3 -35
v 29.999999999999979 0 -35
v 29.999999999999979 3 -35
f 609 610 611 612
f 612 611 613 614
f 614 613 615 616
f 616 615 610 609
f 609 612 614 616
f 610 615 613 611
g object_78
v 34.999999999999972 3 -30
v 34.999999999999972 0 -30
v 39.999999999999972 0 -30
v 39.999999999999972 3 -30
v 39.999999999999972 0 -35
v 39.999999999999972 3 -35
v 34.999999999999972 0 -35
v 34.999999999999972 3 -35
f 617 618 619 620
f 620 619 621 622
f 622 621 623 624
f 624 623 618 617
f 617 620 622 624
f 618 623 621 619
g object_79
v 39.999999999999972 3 -30
v 39.999999999999972 0 -30
v 44.999999999999972 0 -30
v 44.999999999999972 3 -30
v 44.999999999999972 0 -35
v 44.999999999999972 3 -35
v 39.999999999999972 0 -35
v 39.999999999999972 3 -35
f 625 626 627 628
f 628 627 629 630
f 630 629 631 632
f 632 631 626 625
f 625 628 630 632
f 626 631 629 627
g object_80
v 44.999999999999972 3 -30
v 44.999999999999972 0 -30
v 49.999999999999972 0 -30
v 49.999999999999972 3 -30
v 49.999999999999972 0 -35
v 49.999999999999972 3 -35
v 44.999999999999972 0 -35
v 44.999999999999972 3 -35
f 633 634 635 636
f 636 635 637 638
f 638 637 639 640
f 640 639 634 633
f 633 636 638 640
f 634 639 637 635
g object_81
v 0 6 5
v 0 3 5
v 4.9999999999999964 3 5
v 4.9999999999999964 6 5
v 4.9999999999999964 3 0
v 4.9999999999999964 6 0
v 0 3 0
v 0 6 0
f 641 642 643 644
f 644 643 645 646
f 646 645 647 648
f 648 647 642 641
f 641 644 646 648
f 642 647 645 643
g object_82
v 4.9999999999999964 6 5
v 4.9999999999999964 3 5
v 9.9999999999999929 3 5
v 9.9999999999999929 6 5
v 9.9999999999999929 3 0
v 9.9999999999999929 6 0
v 4.9999999999999964 3 0
v 4.9999999999999964 6 0
f 649 650 651 652
f 652 651 653 654
f 654 653 655 656
f 656 655 650 649
f 649 652 654 656
f 650 655 653 651
g object_83
v 9.9999999999999929 6 5
v 9.9999999999999929 3 5
v 14.999999999999989 3 5
v 14.999999999999989 6 5
v 14.999999999999989 3 0
v 14.999999999999989 6 0
v 9.9999999999999929 3 0
v 9.9999999999999929 6 0
f 657 658 659 660
f 660 659 661 662
f 662 661 663 664
f 664 663 658 657
f 657 660 662 664
f 658 663 661 659
g object_84
v 14.999999999999989 6 5
v 14.999999999999989 3 5
v 19.999999999999986 3 5
v 19.999999999999986 6 5
v 19.999999999999986 3 0
v 19.999999999999986 6 0
v 14.999999999999989 3 0
v 14.999999999999989 6 0
f 665 666 667 668
f 668 667 669 670
f 670 669 671 672
f 672 671 666 665
f 665 668 670 672
f 666 671 669 667
g object_85
v 19.999999999999986 6 5
v 19.999999999999986 3 5
v 24.999999999999982 3 5
v 24.999999999999982 6 5
v 24.999999999999982 3 0
v 24.999999999999982 6 0
v 19.999999999999986 3 0
v 19.999999999999986 6 0
f 673 674 675 676
f 676 675 677 678
f 678 677 679 680
f 680 679 674 673
f 673 676 678 680
f 674 679 677 675
g object_86
v 24.999999999999982 6 5
v 24.999999999999982 3 5
v 29.999999999999979 3 5
v 29.999999999999979 6 5
v 29.999999999999979 3 0
v 29.999999999999979 6 0
v 24.999999999999982 3 0
v 24.999999999999982 6 0
f 681 682 683 684
f 684 683 685 686
f 686 685 687 688
f 688 687 682 681
f 681 684 686 688
f 682 687 685 683
g object_87
v 29.999999999999979 6 5
v 29.999999999999979 3 5
v 34.999999999999972 3 5
v 34.999999999999972 6 5
v 34.999999999999972 3 0
v 34.999999999999972 6 0
v 29.999999999999979 3 0
v 29.999999999999979 6 0
f 689 690 691 692
f 692 691 693 694
f 694 693 695 696
f 696 695 690 689
f 689 692 694 696
f 690 695 693 691
g object_88
v 34.999999999999972 6 5
v 34.999999999999972 3 5
v 39.999999999999972 3 5
v 39.999999999999972 6 5
v 39.999999999999972 3 0
v 39.999999999999972 6 0
v 34.999999999999972 3 0
v 34.999999999999972 6 0
f 697 698 699 700
f 700 699 701 702
f 702 701 703 704
f 704 703 698 697
f 697 700 702 704
f 698 703 701 699
g object_89
v 39.999999999999972 6 5
v 39.999999999999972 3 5
v 44.999999999999972 3 5
v 44.999999999999972 6 5
v 44.999999999999972 3 0
v 44.999999999999972 6 0
v 39.999999999999972 3 0
v 39.999999999999972 6 0
f 705 706 707 708
f 708 707 709 710
f 710 709 711 712
f 712 711 706 705
f 705 708 710 712
f 706 711 709 707
g object_90
v 44.999999999999972 6 5
v 44.999999999999972 3 5
v 49.999999999999972 3 5
v 49.999999999999972 6 5
v 49.999999999999972 3 0
v 49.999999999999972 6 0
v 44.999999999999972 3 0
v 44.999999999999972 6 0
f 713 714 715 716
f 716 715 717 718
f 718 717 719 720
f 720 719 714 713
f 713 716 718 720
f 714 719 717 715
g object_91
v 0 6 0
v 0 3 0
v 4.9999999999999964 3 0
v 4.9999999999999964 6 0
v 4.9999999999999964 3 -5
v 4.9999999999999964 6 -5
v 0 3 -5
v 0 6 -5
f 721 722 723 724
f 724 723 725 726
f 726 725 727 728
f 728 727 722 721
f 721 724 726 728
f 722 727 725 723
g object_92
v 4.9999999999999964 6 0
v 4.9999999999999964 3 0
v 9.9999999999999929 3 0
v 9.9999999999999929 6 0
v 9.9999999999999929 3 -5
v 9.9999999999999929 6 -5
v 4.9999999999999964 3 -5
v 4.9999999999999964 6 -5
f 729 730 731 732
f 732 731 733 734
f 734 733 735 736
f 736 735 730 729
f 729 732 734 736
f 730 735 733 731
g object_93
v 9.9999999999999929 6 0
v 9.9999999999999929 3 0
v 14.999999999999989 3 0
v 14.999999999999989 6 0
v 14.999999999999989 3 -5
v 14.999999999999989 6 -5
v 9.9999999999999929 3 -5
v 9.9999999999999929 6 -5
f 737 738 739 740
f 740 739 741 742
f 742 741 743 744
f 744 743 738 737
f 737 740 742 744
f 738 743 741 739
g object_94
v 14.999999999999989 6 0
v 14.999999999999989 3 0
v 19.999999999999986 3 0
v 19.999999999999986 6 0
v 19.999999999999986 3 -5
v 19.999999999999986 6 -5
v 14.999999999999989 3 -5
v 14.999999999999989 6 -5
f 745 746 747 748
f 748 747 749 750
f 750 749 751 752
f 752 751 746 745
f 745 748 750 752
f 746 751 749 747
g object_95
v 19.999999999999986 6 0
v 19.999999999999986 3 0
v 24.999999999999982 3 0
v 24.999999999999982 6 0
v 24.999999999999982 3 -5
v 24.999999999999982 6 -5
v 19.999999999999986 3 -5
v 19.999999999999986 6 -5
f 753 754 755 756
f 756 755 757 758
f 758 757 759 760
f 760 759 754 753
f 753 756 758 760
f 754 759 757 755
g object_96
v 24.999999999999982 6 0
v 24.999999999999982 3 0
v 29.999999999999979 3 0
v 29.999999999999979 6 0
v 29.999999999999979 3 -5
v 29.999999999999979 6 -5
v 24.999999999999982 3 -5
v 24.999999999999982 6 -5
f 761 762 763 764
f 764 763 765 766
f 766 765 767 768
f 768 767 762 761
f 761 764 766 768
f 762 767 765 763
g object_97
v 29.999999999999979 6 0
v 29.999999999999979 3 0
v 34.999999999999972 3 0
v 34.999999999999972 6 0
v 34.999999999999972 3 -5
v 34.999999999999972 6 -5
v 29.999999999999979 3 -5
v 29.999999999999979 6 -5
f 769 770 771 772
f 772 771 773 774
f 774 773 775 776
f 776 775 770 769
f 769 772 774 776
f 770 775 773 771
g object_98
v 34.999999999999972 6 0
v 34.999999999999972 3 0
v 39.999999999999972 3 0
v 39.999999999999972 6 0
v 39.999999999999972 3 -5
v 39.999999999999972 6 -5
v 34.999999999999972 3 -5
v 34.999999999999972 6 -5
f 777 778 779 780
f 780 779 781 782
f 782 781 783 784
f 784 783 778 777
f 777 780 782 784
f 778 783 781 779
g object_99
v 39.999999999999972 6 0
v 39.999999999999972 3 0
v 44.999999999999972 3 0
v 44.999999999999972 6 0
v 44.999999999999972 3 -5
v 44.999999999999972 6 -5
v 39.999999999999972 3 -5
v 39.999999999999972 6 -5
f 785 786 787 788
f 788 787 789 790
f 790 789 791 792
f 792 791 786 785
f 785 788 790 792
f 786 791 789 787
g object_100
v 44.999999999999972 6 0
v 44.999999999999972 3 0
v 49.999999999999972 3 0
v 49.999999999999972 6 0
v 49.999999999999972 3 -5
v 49.999999999999972 6 -5
v 44.999999999999972 3 -5
v 44.999999999999972 6 -5
f 793 794 795 796
f 796 795 797 798
f 798 797 799 800
f 800 799 794 793
f 793 796 798 800
f 794 799 797 795
g object_101
v 0 6 -5
v 0 3 -5
v 4.9999999999999964 3 -5
v 4.9999999999999964 6 -5
v 4.9999999999999964 3 -10
v 4.9999999999999964 6 -10
v 0 3 -10
v 0 6 -10
f 801 802 803 804
f 804 803 805 806
f 806 805 807 808
f 808 807 802 801
f 801 804 806 808
f 802 807 805 803
g object_102
v 4.9999999999999964 6 -5
v 4.9999999999999964 3 -5
v 9.9999999999999929 3 -5
v 9.9999999999999929 6 -5
v 9.9999999999999929 3 -10
v 9.9999999999999929 6 -10
v 4.9999999999999964 3 -10
v 4.9999999999999964 6 -10
f 809 810 811 812
f 812 811 813 814
f 814 813 815 816
f 816 815 810 809
f 809 812 814 816
f 810 815 813 811
g object_103
v 9.9999999999999929 6 -5
v 9.9999999999999929 3 -5
v 14.999999999999989 3 -5
v 14.999999999999989 6 -5
v 14.999999999999989 3 -10
v 14.999999999999989 6 -10
v 9.9999999999999929 3 -10
v 9.9999999999999929 6 -10
f 817 818 819 820
f 820 819 821 822
f 822 821 823 824
f 824 823 818 817
f 817 820 822 824
f 818 823 821 819
g object_104
v 14.999999999999989 6 -5
v 14.999999999999989 3 -5
v 19.999999999999986 3 -5
v 19.999999999999986 6 -5
v 19.999999999999986 3 -10
v 19.999999999999986 6 -10
v 14.999999999999989 3 -10
v 14.999999999999989 6 -10
f 825 826 827 828
f 828 827 829 830
f 830 829 831 832
f 832 831 826 825
f 825 828 830 832
f 826 831 829 827
g object_105
v 19.999999999999986 6 -5
v 19.999999999999986 3 -5
v 24.999999999999982 3 -5
v 24.999999999999982 6 -5
v 24.999999999999982 3 -10
v 24.999999999999982 6 -10
v 19.999999999999986 3 -10
v 19.999999999999986 6 -10
f 833 834 835 836
f 836 835 837 838
f 838 837 839 840
f 840 839 834 833
f 833 836 838 840
f 834 839 837 835
g object_106
v 24.999999999999982 6 -5
v 24.999999999999982 3 -5
v 29.999999999999979 3 -5
v 29.999999999999979 6 -5
v 29.999999999999979 3 -10
v 29.999999999999979 6 -10
v 24.999999999999982 3 -10
v 24.999999999999982 6 -10
f 841 842 843 844
f 844 843 845 846
f 846 845 847 848
f 848 847 842 841
f 841 844 846 848
f 842 847 845 843
g object_107
v 29.999999999999979 6 -5
v 29.999999999999979 3 -5
v 34.999999999999972 3 -5
v 34.999999999999972 6 -5
v 34.999999999999972 3 -10
v 34.999999999999972 6 -10
v 29.999999999999979 3 -10
v 29.999999999999979 6 -10
f 849 850 851 852
f 852 851 853 854
f 854 853 855 856
f 856 855 850 849
f 849 852 854 856
f 850 855 853 851
g object_108
v 34.999999999999972 6 -5
v 34.999999999999972 3 -5
v 39.999999999999972 3 -5
v 39.999999999999972 6 -5
v 39.999999999999972 3 -10
v 39.999999999999972 6 -10
v 34.999999999999972 3 -10
v 34.999999999999972 6 -10
f 857 858 859 860
f 860 859 861 862
f 862 861 863 864
f 864 863 858 857
f 857 860 862 864
f 858 863 861 859
g object_109
v 39.999999999999972 6 -5
v 39.999999999999972 3 -5
v 44.999999999999972 3 -5
v 44.999999999999972 6 -5
v 44.999999999999972 3 -10
v 44.999999999999972 6 -10
v 39.999999999999972 3 -10
v 39.999999999999972 6 -10
f 865 866 867 868
f 868 867 869 870
f 870 869 871 872
f 872 871 866 865
f 865 868 870 872
f 866 871 869 867
g object_110
v 44.999999999999972 6 -5
v 44.999999999999972 3 -5
v 49.999999999999972 3 -5
v 49.999999999999972 6 -5
v 49.999999999999972 3 -10
v 49.999999999999972 6 -10
v 44.999999999999972 3 -10
v 44.999999999999972 6 -10
f 873 874 875 876
f 876 875 877 878
f 878 877 879 880
f 880 879 874 873
f 873 876 878 880
f 874 879 877 875
g object_111
v 0 6 -10
v 0 3 -10
v 4.9999999999999964 3 -10
v 4.9999999999999964 6 -10
v 4.9999999999999964 3 -15
v 4.9999999999999964 6 -15
v 0 3 -15
v 0 6 -15
f 881 882 883 884
f 884 883 885 886
f 886 885 887 888
f 888 887 882 881
f 881 884 886 888
f 882 887 885 883
g object_112
v 4.9999999999999964 6 -10
v 4.9999999999999964 3 -10
v 9.9999999999999929 3 -10
v 9.9999999999999929 6 -10
v 9.9999999999999929 3 -15
v 9.9999999999999929 6 -15
v 4.9999999999999964 3 -15
v 4.9999999999999964 6 -15
f 889 890 891 892
f 892 891 893 894
f 894 893 895 896
f 896 895 890 889
f 889 892 894 896
f 890 895 893 891
g object_113
v 9.9999999999999929 6 -10
v 9.9999999999999929 3 -10
v 14.999999999999989 3 -10
v 14.999999999999989 6 -10
v 14.999999999999989 3 -15
v 14.999999999999989 6 -15
v 9.9999999999999929 3 -15
v 9.9999999999999929 6 -15
f 897 898 899 900
f 900 899 901 902
f 902 901 903 904
f 904 903 898 897
f 897 900 902 904
f 898 903 901 899
g object_114
v 14.999999999999989 6 -10
v 14.999999999999989 3 -10
v 19.999999999999986 3 -10
v 19.999999999999986 6 -10
v 19.999999999999986 3 -15
v 19.999999999999986 6 -15
v 14.999999999999989 3 -15
v 14.999999999999989 6 -15
f 905 906 907 908
f 908 907 909 910
f 910 909 911 912
f 912 911 906 905
f 905 908 910 912
f 906 911 909 907
g object_115
v 19.999999999999986 6 -10
v 19.999999999999986 3 -10
v 24.999999999999982 3 -10
v 24.999999999999982 6 -10
v 24.999999999999982 3 -15
v 24.999999999999982 6 -15
v 19.999999999999986 3 -15
v 19.999999999999986 6 -15
f 913 914 915 916
f 916 915 917 918
f 918 917 919 920
f 920 919 914 913
f 913 916 918 920
f 914 919 917 915
g object_116
v 24.999999999999982 6 -10
v 24.999999999999982 3 -10
v 29.999999999999979 3 -10
v 29.999999999999979 6 -10
v 29.999999999999979 3 -15
v 29.999999999999979 6 -15
v 24.999999999999982 3 -15
v 24.999999999999982 6 -15
f 921 922 923 924
f 924 923 925 926
f 926 925 927 928
f 928 927 922 921
f 921 924 926 928
f 922 927 925 923
g object_117
v 29.999999999999979 6 -10
v 29.999999999999979 3 -10
v 34.999999999999972 3 -10
v 34.999999999999972 6 -10
v 34.999999999999972 3 -15
v 34.999999999999972 6 -15
v 29.999999999999979 3 -15
v 29.999999999999979 6 -15
f 929 930 931 932
f 932 931 933 934
f 934 933 935 936
f 936 935 930 929
f 929 932 934 936
f 930 935 933 931
g object_118
v 34.999999999999972 6 -10
v 34.999999999999972 3 -10
v 39.999999999999972 3 -10
v 39.999999999999972 6 -10
v 39.999999999999972 3 -15
v 39.999999999999972 6 -15
v 34.999999999999972 3 -15
v 34.999999999999972 6 -15
f 937 938 939 940
f 940 939 941 942
f 942 941 943 944
f 944 943 938 937
f 937 940 942 944
f 938 943 941 939
g object_119
v 39.999999999999972 6 -10
v 39.999999999999972 3 -10
v 44.999999999999972 3 -10
v 44.999999999999972 6 -10
v 44.999999999999972 3 -15
v 44.999999999999972 6 -15
v 39.999999999999972 3 -15
v 39.999999999999972 6 -15
f 945 946 947 948
f 948 947 949 950
f 950 949 951 952
f 952 951 946 945
f 945 948 950 952
f 946 951 949 947
g object_120
v 44.999999999999972 6 -10
v 44.999999999999972 3 -10
v 49.999999999999972 3 -10
v 49.999999999999972 6 -10
v 49.999999999999972 3 -15
v 49.999999999999972 6 -15
v 44.999999999999972 3 -15
v 44.999999999999972 6 -15
f 953 954 955 956
f 956 955 957 958
f 958 957 959 960
f 960 959 954 953
f 953 956 958 960
f 954 959 957 955
g object_121
v 0 6 -15
v 0 3 -15
v 4.9999999999999964 3 -15
v 4.9999999999999964 6 -15
v 4.9999999999999964 3 -20
v 4.9999999999999964 6 -20
v 0 3 -20
v 0 6 -20
f 961 962 963 964
f 964 963 965 966
f 966 965 967 968
f 968 967 962 961
f 961 964 966 968
f 962 967 965 963
g object_122
v 4.9999999999999964 6 -15
v 4.9999999999999964 3 -15
v 9.9999999999999929 3 -15
v 9.9999999999999929 6 -15
v 9.9999999999999929 3 -20
v 9.9999999999999929 6 -20
v 4.9999999999999964 3 -20
v 4.9999999999999964 6 -20
f 969 970 971 972
f 972 971 973 974
f 974 973 975 976
f 976 975 970 969
f 969 972 974 976
f 970 975 973 971
g object_123
v 9.9999999999999929 6 -15
v 9.9999999999999929 3 -15
v 14.999999999999989 3 -15
v 14.999999999999989 6 -15
v 14.999999999999989 3 -20
v 14.999999999999989 6 -20
v 9.9999999999999929 3 -20
v 9.9999999999999929 6 -20
f 977 978 979 980
f 980 979 981 982
f 982 981 983 984
f 984 983 978 977
f 977 980 982 984
f 978 983 981 979
g object_124
v 14.999999999999989 6 -15
v 14.999999999999989 3 -15
v 19.999999999999986 3 -15
v 19.999999999999986 6 -15
v 19.999999999999986 3 -20
v 19.999999999999986 6 -20
v 14.999999999999989 3 -20
v 14.999999999999989 6 -20
f 985 986 987 988
f 988 987 989 990
f 990 989 991 992
f 992 991 986 985
f 985 988 990 992
f 986 991 989 987
g object_125
v 19.999999999999986 6 -15
v 19.999999999999986 3 -15
v 24.999999999999982 3 -15
v 24.999999999999982 6 -15
v 24.999999999999982 3 -20
v 24.999999999999982 6 -20
v 19.999999999999986 3 -20
v 19.999999999999986 6 -20
f 993 994 995 996
f 996 995 997 998
f 998 997 999 1000
f 1000 999 994 993
f 993 996 998 1000
f 994 999 997 995
g object_126
v 24.999999999999982 6 -15
v 24.999999999999982 3 -15
v 29.999999999999979 3 -15
v 29.999999999999979 6 -15
v 29.999999999999979 3 -20
v 29.999999999999979 6 -20
v 24.999999999999982 3 -20
v 24.999999999999982 6 -20
f 1001 1002 1003 1004
f 1004 1003 1005 1006
f 1006 1005 1007 1008
f 1008 1007 1002 1001
f 1001 1004 1006 1008
f 1002 1007 1005 1003
g object_127
v 29.999999999999979 6 -15
v 29.999999999999979 3 -15
v 34.999999999999972 3 -15
v 34.999999999999972 6 -15
v 34.999999999999972 3 -20
v 34.999999999999972 6 -20
v 29.999999999999979 3 -20
v 29.999999999999979 6 -20
f 1009 1010 1011 1012
f 1012 1011 1013 1014
f 1014 1013 1015 1016
f 1016 1015 1010 1009
f 1009 1012 1014 1016
f 1010 1015 1013 1011
g object_128
v 34.999999999999972 6 -15
v 34.999999999999972 3 -15
v 39.999999999999972 3 -15
v 39.999999999999972 6 -15
v 39.999999999999972 3 -20
v 39.999999999999972 6 -20
v 34.999999999999972 3 -20
v 34.999999999999972 6 -20
f 1017 1018 1019 1020
f 1020 1019 1021 1022
f 1022 1021 1023 1024
f 1024 1023 1018 1017
f 1017 1020 1022 1024
f 1018 1023 1021 1019
g object_129
v 39.999999999999972 6 -15
v 39.999999999999972 3 -15
v 44.999999999999972 3 -15
v 44.999999999999972 6 -15
v 44.999999999999972 3 -20
v 44.999999999999972 6 -20
v 39.999999999999972 3 -20
v 39.999999999999972 6 -20
f 1025 1026 1027 1028
f 1028 1027 1029 1030
f 1030 1029 1031 1032
f 1032 1031 1026 1025
f 1025 1028 1030 1032
f 1026 1031 1029 1027
g object_130
v 44.999999999999972 6 -15
v 44.999999999999972 3 -15
v 49.999999999999972 3 -15
v 49.999999999999972 6 -15
v 49.999999999999972 3 -20
v 49.999999999999972 6 -20
v 44.999999999999972 3 -20
v 44.999999999999972 6 -20
f 1033 1034 1035 1036
f 1036 1035 1037 1038
f 1038 1037 1039 1040
f 1040 1039 1034 1033
f 1033 1036 1038 1040
f 1034 1039 1037 1035
g object_131
v 0 6 -20
v 0 3 -20
v 4.9999999999999964 3 -20
v 4.9999999999999964 6 -20
v 4.9999999999999964 3 -25
v 4.9999999999999964 6 -25
v 0 3 -25
v 0 6 -25
f 1041 1042 1043 1044
f 1044 1043 1045 1046
f 1046 1045 1047 1048
f 1048 1047 1042 1041
f 1041 1044 1046 1048
f 1042 1047 1045 1043
g object_132
v 4.9999999999999964 6 -20
v 4.9999999999999964 3 -20
v 9.9999999999999929 3 -20
v 9.9999999999999929 6 -20
v 9.9999999999999929 3 -25
v 9.9999999999999929 6 -25
v 4.9999999999999964 3 -25
v 4.9999999999999964 6 -25
f 1049 1050 1051 1052
f 1052 1051 1053 1054
f 1054 1053 1055 1056
f 1056 1055 1050 1049
f 1049 1052 1054 1056
f 1050 1055 1053 1051
g object_133
v 9.9999999999999929 6 -20
v 9.9999999999999929 3 -20
v 14.999999999999989 3 -20
v 14.999999999999989 6 -20
v 14.999999999999989 3 -25
v 14.999999999999989 6 -25
v 9.9999999999999929 3 -25
v 9.9999999999999929 6 -25
f 1057 1058 1059 1060
f 1060 1059 1061 1062
f 1062 1061 1063 1064
f 1064 1063 1058 1057
f 1057 1060 1062 1064
f 1058 1063 1061 1059
g object_134
v 14.999999999999989 6 -20
v 14.999999999999989 3 -20
v 19.999999999999986 3 -20
v 19.999999999999986 6 -20
v 19.999999999999986 3 -25
v 19.999999999999986 6 -25
v 14.999999999999989 3 -25
v 14.999999999999989 6 -25
f 1065 1066 1067 1068
f 1068 1067 1069 1070
f 1070 1069 1071 1072
f 1072 1071 1066 1065
f 1065 1068 1070 1072
f 1066 1071 1069 1067
g object_135
v 19.999999999999986 6 -20
v 19.999999999999986 3 -20
v 24.999999999999982 3 -20
v 24.999999999999982 6 -20
v 24.999999999999982 3 -25
v 24.999999999999982 6 -25
v 19.999999999999986 3 -25
v 19.999999999999986 6 -25
f 1073 1074 1075 1076
f 1076 1075 1077 1078
f 1078 1077 1079 1080
f 1080 1079 1074 1073
f 1073 1076 1078 1080
f 1074 1079 1077 1075
g object_136
v 24.999999999999982 6 -20
v 24.999999999999982 3 -20
v 29.999999999999979 3 -20
v 29.999999999999979 6 -20
v 29.999999999999979 3 -25
v 29.999999999999979 6 -25
v 24.999999999999982 3 -25
v 24.999999999999982 6 -25
f 1081 1082 1083 1084
f 1084 1083 1085 1086
f 1086 1085 1087 1088
f 1088 1087 1082 1081
f 1081 1084 1086 1088
f 1082 1087 1085 1083
g object_137
v 29.999999999999979 6 -20
v 29.999999999999979 3 -20
v 34.999999999999972 3 -20
v 34.999999999999972 6 -20
v 34.999999999999972 3 -25
v 34.999999999999972 6 -25
v 29.999999999999979 3 -25
v 29.999999999999979 6 -25
f 1089 1090 1091 1092
f 1092 1091 1093 1094
f 1094 1093 1095 1096
f 1096 1095 1090 1089
f 1089 1092 1094 1096
f 1090 1095 1093 1091
g object_138
v 34.999999999999972 6 -20
v 34.999999999999972 3 -20
v 39.999999999999972 3 -20
v 39.999999999999972 6 -20
v 39.999999999999972 3 -25
v 39.999999999999972 6 -25
v 34.999999999999972 3 -25
v 34.999999999999972 6 -25
f 1097 1098 1099 1100
f 1100 1099 1101 1102
f 1102 1101 1103 1104
f 1104 1103 1098 1097
f 1097 1100 1102 1104
f 1098 1103 1101 1099
g object_139
v 39.999999999999972 6 -20
v 39.999999999999972 3 -20
v 44.999999999999972 3 -20
v 44.999999999999972 6 -20
v 44.999999999999972 3 -25
v 44.999999999999972 6 -25
v 39.999999999999972 3 -25
v 39.999999999999972 6 -25
f 1105 1106 1107 1108
f 1108 1107 1109 1110
f 1110 1109 1111 1112
f 1112 1111 1106 1105
f 1105 1108 1110 1112
f 1106 1111 1109 1107
g object_140
v 44.999999999999972 6 -20
v 44.999999999999972 3 -20
v 49.999999999999972 3 -20
v 49.999999999999972 6 -20
v 49.999999999999972 3 -25
v 49.999999999999972 6 -25
v 44.999999999999972 3 -25
v 44.999999999999972 6 -25
f 1113 1114 1115 1116
f 1116 1115 1117 1118
f 1118 1117 1119 1120
f 1120 1119 1114 1113
f 1113 1116 1118 1120
f 1114 1119 1117 1115
g object_141
v 0 6 -25
v 0 3 -25
v 4.9999999999999964 3 -25
v 4.9999999999999964 6 -25
v 4.9999999999999964 3 -30
v 4.9999999999999964 6 -30
v 0 3 -30
v 0 6 -30
f 1121 1122 1123 1124
f 1124 1123 1125 1126
f 1126 1125 1127 1128
f 1128 1127 1122 1121
f 1121 1124 1126 1128
f 1122 1127 1125 1123
g object_142
v 4.9999999999999964 6 -25
v 4.9999999999999964 3 -25
v 9.9999999999999929 3 -25
v 9.9999999999999929 6 -25
v 9.9999999999999929 3 -30
v 9.9999999999999929 6 -30
v 4.9999999999999964 3 -30
v 4.9999999999999964 6 -30
f 1129 1130 1131 1132
f 1132 1131 1133 1134
f 1134 1133 1135 1136
f 1136 1135 1130 1129
f 1129 1132 1134 1136
f 1130 1135 1133 1131
g object_143
v 9.9999999999999929 6 -25
v 9.9999999999999929 3 -25
v 14.999999999999989 3 -25
v 14.999999999999989 6 -25
v 14.999999999999989 3 -30
v 14.999999999999989 6 -30
v 9.9999999999999929 3 -30
v 9.9999999999999929 6 -30
f 1137 1138 1139 1140
f 1140 1139 1141 1142
f 1142 1141 1143 1144
f 1144 1143 1138 1137
f 1137 1140 1142 1144
f 1138 1143 1141 1139
g object_144
v 14.999999999999989 6 -25
v 14.999999999999989 3 -25
v 19.999999999999986 3 -25
v 19.999999999999986 6 -25
v 19.999999999999986 3 -30
v 19.999999999999986 6 -30
v 14.999999999999989 3 -30
v 14.999999999999989 6 -30
f 1145 1146 1147 1148
f 1148 1147 1149 1150
f 1150 1149 1151 1152
f 1152 1151 1146 1145
f 1145 1148 1150 1152
f 1146 1151 1149 1147
g object_145
v 19.999999999999986 6 -25
v 19.999999999999986 3 -25
v 24.999999999999982 3 -25
v 24.999999999999982 6 -25
v 24.999999999999982 3 -30
v 24.999999999999982 6 -30
v 19.999999999999986 3 -30
v 19.999999999999986 6 -30
f 1153 1154 1155 1156
f 1156 1155 1157 1158
f 1158 1157 1159 1160
f 1160 1159 1154 1153
f 1153 1156 1158 1160
f 1154 1159 1157 1155
g object_146
v 24.999999999999982 6 -25
v 24.999999999999982 3 -25
v 29.999999999999979 3 -25
v 29.999999999999979 6 -25
v 29.999999999999979 3 -30
v 29.999999999999979 6 -30
v 24.999999999999982 3 -30
v 24.999999999999982 6 -30
f 1161 1162 1163 1164
f 1164 1163 1165 1166
f 1166 1165 1167 1168
f 1168 1167 1162 1161
f 1161 1164 1166 1168
f 1162 1167 1165 1163
g object_147
v 29.999999999999979 6 -25
v 29.999999999999979 3 -25
v 34.999999999999972 3 -25
v 34.999999999999972 6 -25
v 34.999999999999972 3 -30
v 34.999999999999972 6 -30
v 29.999999999999979 3 -30
v 29.999999999999979 6 -30
f 1169 1170 1171 1172
f 1172 1171 1173 1174
f 1174 1173 1175 1176
f 1176 1175 1170 1169
f 1169 1172 1174 1176
f 1170 1175 1173 1171
g object_148
v 34.999999999999972 6 -25
v 34.999999999999972 3 -25
v 39.999999999999972 3 -25
v 39.999999999999972 6 -25
v 39.999999999999972 3 -30
v 39.999999999999972 6 -30
v 34.999999999999972 3 -30
v 34.999999999999972 6 -30
f 1177 1178 1179 1180
f 1180 1179 1181 1182
f 1182 1181 1183 1184
f 1184 1183 1178 1177
f 1177 1180 1182 1184
f 1178 1183 1181 1179
g object_149
v 39.999999999999972 6 -25
v 39.999999999999972 3 -25
v 44.999999999999972 3 -25
v 44.999999999999972 6 -25
v 44.999999999999972 3 -30
v 44.999999999999972 6 -30
v 39.999999999999972 3 -30
v 39.999999999999972 6 -30
f 1185 1186 1187 1188
f 1188 1187 1189 1190
f 1190 1189 1191 1192
f 1192 1191 1186 1185
f 1185 1188 1190 1192
f 1186 1191 1189 1187
g object_150
v 44.999999999999972 6 -25
v 44.999999999999972 3 -25
v 49.999999999999972 3 -25
v 49.999999999999972 6 -25
v 49.999999999999972 3 -30
v 49.999999999999972 6 -30
v 44.999999999999972 3 -30
v 44.999999999999972 6 -30
f 1193 1194 1195 1196
f 1196 1195 1197 1198
f 1198 1197 1199 1200
f 1200 1199 1194 1193
f 1193 1196 1198 1200
f 1194 1199 1197 1195
g object_151
v 0 6 -30
v 0 3 -30
v 4.9999999999999964 3 -30
v 4.9999999999999964 6 -30
v 4.9999999999999964 3 -35
v 4.9999999999999964 6 -35
v 0 3 -35
v 0 6 -35
f 1201 1202 1203 1204
f 1204 1203 1205 1206
f 1206 1205 1207 1208
f 1208 1207 1202 1201
f 1201 1204 1206 1208
f 1202 1207 1205 1203
g object_152
v 4.9999999999999964 6 -30
v 4.9999999999999964 3 -30
v 9.9999999999999929 3 -30
v 9.9999999999999929 6 -30
v 9.9999999999999929 3 -35
v 9.9999999999999929 6 -35
v 4.9999999999999964 3 -35
v 4.9999999999999964 6 -35
f 1209 1210 1211 1212
f 1212 1211 1213 1214
f 1214 1213 1215 1216
f 1216 1215 1210 1209
f 1209 1212 1214 1216
f 1210 1215 1213 1211
g object_153
v 9.9999999999999929 6 -30
v 9.9999999999999929 3 -30
v 14.999999999999989 3 -30
v 14.999999999999989 6 -30
v 14.999999999999989 3 -35
v 14.999999999999989 6 -35
v 9.9999999999999929 3 -35
v 9.9999999999999929 6 -35
f 1217 1218 1219 1220
f 1220 1219 1221 1222
f 1222 1221 1223 1224
f 1224 1223 1218 1217
f 1217 1220 1222 1224
f 1218 1223 1221 1219
g object_154
v 14.999999999999989 6 -30
v 14.999999999999989 3 -30
v 19.999999999999986 3 -30
v 19.999999999999986 6 -30
v 19.999999999999986 3 -35
v 19.999999999999986 6 -35
v 14.999999999999989 3 -35
v 14.999999999999989 6 -35
f 1225 1226 1227 1228
f 1228 1227 1229 1230
f 1230 1229 1231 1232
f 1232 1231 1226 1225
f 1225 1228 1230 1232
f 1226 1231 1229 1227
g object_155
v 19.999999999999986 6 -30
v 19.999999999999986 3 -30
v 24.999999999999982 3 -30
v 24.999999999999982 6 -30
v 24.999999999999982 3 -35
v 24.999999999999982 6 -35
v 19.999999999999986 3 -35
v 19.999999999999986 6 -35
f 1233 1234 1235 1236
f 1236 1235 1237 1238
f 1238 1237 1239 1240
f 1240 1239 1234 1233
f 1233 1236 1238 1240
f 1234 1239 1237 1235
g object_156
v 24.999999999999982 6 -30
v 24.999999999999982 3 -30
v 29.999999999999979 3 -30
v 29.999999999999979 6 -30
v 29.999999999999979 3 -35
v 29.999999999999979 6 -35
v 24.999999999999982 3 -35
v 24.999999999999982 6 -35
f 1241 1242 1243 1244
f 1244 1243 1245 1246
f 1246 1245 1247 1248
f 1248 1247 1242 1241
f 1241 1244 1246 1248
f 1242 1247 1245 1243
g object_157
v 29.999999999999979 6 -30
v 29.999999999999979 3 -30
v 34.999999999999972 3 -30
v 34.999999999999972 6 -30
v 34.999999999999972 3 -35
v 34.999999999999972 6 -35
v 29.999999999999979 3 -35
v 29.999999999999979 6 -35
f 1249 1250 1251 1252
f 1252 1251 1253 1254
f 1254 1253 1255 1256
f 1256 1255 1250 1249
f 1249 1252 1254 1256
f 1250 1255 1253 1251
g object_158
v 34.999999999999972 6 -30
v 34.999999999999972 3 -30
v 39.999999999999972 3 -30
v 39.999999999999972 6 -30
v 39.999999999999972 3 -35
v 39.999999999999972 6 -35
v 34.999999999999972 3 -35
v 34.999999999999972 6 -35
f 1257 1258 1259 1260
f 1260 1259 1261 1262
f 1262 1261 1263 1264
f 1264 1263 1258 1257
f 1257 1260 1262 1264
f 1258 1263 1261 1259
g object_159
v 39.999999999999972 6 -30
v 39.999999999999972 3 -30
v 44.999999999999972 3 -30
v 44.999999999999972 6 -30
v 44.999999999999972 3 -35
v 44.999999999999972 6 -35
v 39.999999999999972 3 -35
v 39.999999999999972 6 -35
f 1265 1266 1267 1268
f 1268 1267 1269 1270
f 1270 1269 1271 1272
f 1272 1271 1266 1265
f 1265 1268 1270 1272
f 1266 1271 1269 1267
g object_160
v 44.999999999999972 6 -30
v 44.999999999999972 3 -30
v 49.999999999999972 3 -30
v 49.999999999999972 6 -30
v 49.999999999999972 3 -35
v 49.999999999999972 6 -35
v 44.999999999999972 3 -35
v 44.999999999999972 6 -35
f 1273 1274 1275 1276
f 1276 1275 1277 1278
f 1278 1277 1279 1280
f 1280 1279 1274 1273
f 1273 1276 1278 1280
f 1274 1279 1277 1275
