# Rhino

g Joint_1
v -500 0 -200
v -500 200 -200
v -400 0 -200
v -400 200 -200
v -400 0 -300
v -400 200 -300
v -500 0 -300
v -500 200 -300
f 3 1 7 5
f 8 2 4 6
f 1 3 4 2
f 3 5 6 4
f 5 7 8 6
f 7 1 2 8
g Joint_2
v -500 0 100
v -500 200 100
v -400 0 100
v -400 200 100
v -400 0 -200
v -400 200 -200
v -500 0 -200
v -500 200 -200
f 11 9 15 13
f 16 10 12 14
f 9 11 12 10
f 11 13 14 12
f 13 15 16 14
f 15 9 10 16
g Joint_3
v -400 0 100
v -400 200 100
v -300 0 100
v -300 200 100
v -300 0 -100
v -300 200 -100
v -400 0 -100
v -400 200 -100
f 19 17 23 21
f 24 18 20 22
f 17 19 20 18
f 19 21 22 20
f 21 23 24 22
f 23 17 18 24
g Palm_2
v -300 0 100
v -300 200 100
v 100 0 100
v 100 200 100
v 100 0 -100
v 100 200 -100
v -300 0 -100
v -300 200 -100
f 27 25 31 29
f 32 26 28 30
f 25 27 28 26
f 27 29 30 28
f 29 31 32 30
f 31 25 26 32
g Palm_1
v -200 0 -100
v -200 200 -100
v 100 0 -100
v 100 200 -100
v 100 0 -200
v 100 200 -200
v -200 0 -200
v -200 200 -200
f 35 33 39 37
f 40 34 36 38
f 33 35 36 34
f 35 37 38 36
f 37 39 40 38
f 39 33 34 40
g Palm_1
v -300 0 -100
v -300 200 -100
v -200 0 -100
v -200 200 -100
v -200 0 -200
v -200 200 -200
v -300 0 -200
v -300 200 -200
f 43 41 47 45
f 48 42 44 46
f 41 43 44 42
f 43 45 46 44
f 45 47 48 46
f 47 41 42 48
g Joint_1
v 0 0 -500
v 0 200 -500
v 100 0 -500
v 100 200 -500
v 100 0 -600
v 100 200 -600
v 0 0 -600
v 0 200 -600
f 51 49 55 53
f 56 50 52 54
f 49 51 52 50
f 51 53 54 52
f 53 55 56 54
f 55 49 50 56
g Joint_2
v 0 0 -400
v 0 200 -400
v 100 0 -400
v 100 200 -400
v 100 0 -500
v 100 200 -500
v 0 0 -500
v 0 200 -500
f 59 57 63 61
f 64 58 60 62
f 57 59 60 58
f 59 61 62 60
f 61 63 64 62
f 63 57 58 64
g Joint_1
v -100 0 -600
v -100 200 -600
v 0 0 -600
v 0 200 -600
v 0 0 -750
v 0 200 -750
v -100 0 -750
v -100 200 -750
f 67 65 71 69
f 72 66 68 70
f 65 67 68 66
f 67 69 70 68
f 69 71 72 70
f 71 65 66 72
g Joint_2
v -100 0 -400
v -100 200 -400
v 0 0 -400
v 0 200 -400
v 0 0 -600
v 0 200 -600
v -100 0 -600
v -100 200 -600
f 75 73 79 77
f 80 74 76 78
f 73 75 76 74
f 75 77 78 76
f 77 79 80 78
f 79 73 74 80
g Joint_2
v -200 0 -400
v -200 200 -400
v -100 0 -400
v -100 200 -400
v -100 0 -600
v -100 200 -600
v -200 0 -600
v -200 200 -600
f 83 81 87 85
f 88 82 84 86
f 81 83 84 82
f 83 85 86 84
f 85 87 88 86
f 87 81 82 88
g Joint_1
v -200 0 -600
v -200 200 -600
v -100 0 -600
v -100 200 -600
v -100 0 -750
v -100 200 -750
v -200 0 -750
v -200 200 -750
f 91 89 95 93
f 96 90 92 94
f 89 91 92 90
f 91 93 94 92
f 93 95 96 94
f 95 89 90 96
g Joint_1
v -300 0 -600
v -300 200 -600
v -200 0 -600
v -200 200 -600
v -200 0 -750
v -200 200 -750
v -300 0 -750
v -300 200 -750
f 99 97 103 101
f 104 98 100 102
f 97 99 100 98
f 99 101 102 100
f 101 103 104 102
f 103 97 98 104
g Joint_2
v -300 0 -400
v -300 200 -400
v -200 0 -400
v -200 200 -400
v -200 0 -600
v -200 200 -600
v -300 0 -600
v -300 200 -600
f 107 105 111 109
f 112 106 108 110
f 105 107 108 106
f 107 109 110 108
f 109 111 112 110
f 111 105 106 112
g Joint_3
v -100 0 -200
v -100 200 -200
v 0 0 -200
v 0 200 -200
v 0 0 -400
v 0 200 -400
v -100 0 -400
v -100 200 -400
f 115 113 119 117
f 120 114 116 118
f 113 115 116 114
f 115 117 118 116
f 117 119 120 118
f 119 113 114 120
g Joint_3
v 0 0 -200
v 0 200 -200
v 100 0 -200
v 100 200 -200
v 100 0 -400
v 100 200 -400
v 0 0 -400
v 0 200 -400
f 123 121 127 125
f 128 122 124 126
f 121 123 124 122
f 123 125 126 124
f 125 127 128 126
f 127 121 122 128
g Joint_3
v -200 0 -200
v -200 200 -200
v -100 0 -200
v -100 200 -200
v -100 0 -400
v -100 200 -400
v -200 0 -400
v -200 200 -400
f 131 129 135 133
f 136 130 132 134
f 129 131 132 130
f 131 133 134 132
f 133 135 136 134
f 135 129 130 136
g Joint_3
v -300 0 -200
v -300 200 -200
v -200 0 -200
v -200 200 -200
v -200 0 -400
v -200 200 -400
v -300 0 -400
v -300 200 -400
f 139 137 143 141
f 144 138 140 142
f 137 139 140 138
f 139 141 142 140
f 141 143 144 142
f 143 137 138 144
