# Rhino

g Palm_1
v 0 0 -60
v 190 0 -30
v 0 0 40
v 170 0 70
v 0 60 40
v 0 60 -60
v 170 60 70
v 190 60 -30
f 2 4 3 1
f 5 6 1 3
f 7 5 3 4
f 8 7 4 2
f 6 8 2 1
f 8 6 5 7
g Joint_2_5
v 0 0 40
v -90 0 -60
v 0 0 -60
v -70 0 -90
v 0 60 -60
v 0 60 40
v -70 60 -90
v -90 60 -60
f 10 12 11 9
f 13 14 9 11
f 15 13 11 12
f 16 15 12 10
f 14 16 10 9
f 16 14 13 15
g Joint_1_5
v -90 0 -60
v -120 0 -120
v -70 0 -90
v -100 0 -140
v -70 60 -90
v -90 60 -60
v -100 60 -140
v -120 60 -120
f 18 20 19 17
f 21 22 17 19
f 23 21 19 20
f 24 23 20 18
f 22 24 18 17
f 24 22 21 23
g Joint_3_4
v -10 0 -110
v -20 0 -160
v 29.53074836730957 0 -111.79685211181641
v 20 0 -170
v 29.53074836730957 60 -111.79685211181641
v -10 60 -110
v 20 60 -170
v -20 60 -160
f 26 28 27 25
f 29 30 25 27
f 31 29 27 28
f 32 31 28 26
f 30 32 26 25
f 32 30 29 31
g Joint_2_4
v -20 0 -160
v -30 0 -230
v 20 0 -170
v 10 0 -230
v 20 60 -170
v -20 60 -160
v 10 60 -230
v -30 60 -230
f 34 36 35 33
f 37 38 33 35
f 39 37 35 36
f 40 39 36 34
f 38 40 34 33
f 40 38 37 39
g Joint_1_4
v -30 0 -230
v 10 0 -230
v -30 0 -290
v 0 0 -290
v -30 60 -290
v -30 60 -230
v 0 60 -290
v 10 60 -230
f 42 41 43 44
f 45 43 41 46
f 47 44 43 45
f 48 42 44 47
f 46 41 42 48
f 48 47 45 46
g Joint_3_3
v 29.53074836730957 0 -111.79685211181641
v 30 0 -170
v 75.918479919433594 0 -113.90538787841797
v 70 0 -170
v 75.918479919433594 60 -113.90538787841797
v 29.53074836730957 60 -111.79685211181641
v 70 60 -170
v 30 60 -170
f 50 52 51 49
f 53 54 49 51
f 55 53 51 52
f 56 55 52 50
f 54 56 50 49
f 56 54 53 55
g Joint_2__3
v 30 0 -170
v 70 0 -170
v 30 0 -230
v 70 0 -230
v 30 60 -230
v 30 60 -170
v 70 60 -230
v 70 60 -170
f 58 57 59 60
f 61 59 57 62
f 63 60 59 61
f 64 58 60 63
f 62 57 58 64
f 64 63 61 62
g Joint_1_3
v 70 0 -230
v 60 0 -310
v 30 0 -230
v 30 0 -300
v 30 60 -300
v 30 60 -230
v 60 60 -310
v 70 60 -230
f 66 65 67 68
f 69 68 67 70
f 71 66 68 69
f 72 65 66 71
f 70 67 65 72
f 71 69 70 72
g Joint_3_2
v 90 0 -170
v 130 0 -180
v 75.918479919433594 0 -113.90538787841797
v 138.44329833984375 0 -116.74742126464844
v 138.44329833984375 60 -116.74742126464844
v 75.918479919433594 60 -113.90538787841797
v 130 60 -180
v 90 60 -170
f 74 76 75 73
f 77 78 75 76
f 79 77 76 74
f 80 79 74 73
f 78 80 73 75
f 79 80 78 77
g Joint_2_2
v 90 0 -170
v 130 0 -180
v 90 0 -230
v 120 0 -230
v 90 60 -230
v 90 60 -170
v 120 60 -230
v 130 60 -180
f 82 81 83 84
f 85 83 81 86
f 87 84 83 85
f 88 82 84 87
f 86 81 82 88
f 88 87 85 86
g Joint_1_2
v 90 0 -230
v 120 0 -230
v 90 0 -300
v 110 0 -300
v 90 60 -300
v 90 60 -230
v 110 60 -300
v 120 60 -230
f 90 89 91 92
f 93 91 89 94
f 95 92 91 93
f 96 90 92 95
f 94 89 90 96
f 96 95 93 94
g Joint_3_1
v 138.44329833984375 0 -116.74742126464844
v 150 0 -170
v 180.39973449707031 0 -118.65453338623047
v 170 0 -180
v 180.39973449707031 60 -118.65453338623047
v 138.44329833984375 60 -116.74742126464844
v 170 60 -180
v 150 60 -170
f 98 100 99 97
f 101 102 97 99
f 103 101 99 100
f 104 103 100 98
f 102 104 98 97
f 104 102 101 103
g Joint_2_1
v 150 0 -170
v 170 0 -180
v 150 0 -220
v 170 0 -220
v 150 60 -220
v 150 60 -170
v 170 60 -220
v 170 60 -180
f 106 105 107 108
f 109 107 105 110
f 111 108 107 109
f 112 106 108 111
f 110 105 106 112
f 112 111 109 110
g Joint_1_1
v 150 0 -220
v 170 0 -220
v 150 0 -250
v 170 0 -250
v 150 60 -250
v 150 60 -220
v 170 60 -250
v 170 60 -220
f 114 113 115 116
f 117 115 113 118
f 119 116 115 117
f 120 114 116 119
f 118 113 114 120
f 120 119 117 118
g Palm_2
v 190 0 -30
v 180.39973449707031 0 -118.65453338623047
v 0 0 -60
v -10 0 -110
v -10 60 -110
v 0 60 -60
v 180.39973449707031 60 -118.65453338623047
v 190 60 -30
f 122 121 123 124
f 125 124 123 126
f 127 122 124 125
f 128 121 122 127
f 126 123 121 128
f 127 125 126 128
