# Rhino

g object_1
v 49.494960784912109 0 -11.605679512023926
v 50.418983459472656 0 -11.605679512023926
v 50.418983459472656 0 -5.5471229553222656
v 43.200794219970703 0 -5.5471229553222656
v 43.200794219970703 0 -11.605679512023926
v 47.240989685058594 0 -11.605679512023926
v 47.240989685058594 0 -17.061117172241211
v 46.785953521728516 0 -17.061117172241211
v 46.785953521728516 0 -15.344954490661621
v 46.213443756103516 0 -15.344954490661621
v 46.213443756103516 0 -16.803304672241211
v 46.384243011474609 0 -16.803304672241211
v 46.384243011474609 0 -17.061117172241211
v 45.477020263671875 0 -17.061117172241211
v 45.477020263671875 0 -16.803304672241211
v 45.992244720458984 0 -16.803304672241211
v 45.992244720458984 0 -15.839396476745605
v 43.494014739990234 0 -15.839396476745605
v 43.494014739990234 0 -15.1497802734375
v 46.785953521728516 0 -15.1497802734375
v 46.785953521728516 0 -12.453231811523438
v 46.210029602050781 0 -12.453231811523438
v 46.210029602050781 0 -13.995349884033203
v 46.017265319824219 0 -13.995349884033203
v 46.017265319824219 0 -12.453231811523438
v 45.355545043945312 0 -12.453231811523438
v 45.355545043945312 0 -13.995349884033203
v 45.16278076171875 0 -13.995349884033203
v 45.16278076171875 0 -12.453231811523438
v 44.344921112060547 0 -12.453231811523438
v 44.344921112060547 0 -13.995349884033203
v 44.152156829833984 0 -13.995349884033203
v 44.152156829833984 0 -12.453231811523438
v 43.334297180175781 0 -12.453231811523438
v 43.334297180175781 0 -13.995349884033203
v 43.141532897949219 0 -13.995349884033203
v 43.141532897949219 0 -12.453231811523438
v 42.481765747070312 0 -12.453231811523438
v 42.481765747070312 0 -14.130527496337891
v 42.144626617431641 0 -14.130527496337891
v 42.144626617431641 0 -12.282898902893066
v 40.515781402587891 0 -12.282898902893066
v 40.515781402587891 0 -14.722640991210938
v 42.144626617431641 0 -14.722640991210938
v 42.144626617431641 0 -14.448108673095703
v 42.481765747070312 0 -14.448108673095703
v 42.481765747070312 0 -16.803304672241211
v 44.569644927978516 0 -16.803304672241211
v 44.569644927978516 0 -17.061117172241211
v 41.494449615478516 0 -17.061117172241211
v 41.494449615478516 0 -16.803304672241211
v 42.144626617431641 0 -16.803304672241211
v 42.144626617431641 0 -14.922418594360352
v 40.515781402587891 0 -14.922418594360352
v 40.515781402587891 0 -16.803304672241211
v 40.587078094482422 0 -16.803304672241211
v 40.587078094482422 0 -17.061117172241211
v 39.119594573974609 0 -17.061117172241211
v 39.119594573974609 0 -16.803304672241211
v 39.6348876953125 0 -16.803304672241211
v 39.6348876953125 0 -15.121194839477539
v 39.264842987060547 0 -15.121194839477539
v 39.264842987060547 0 -14.90084171295166
v 39.901416778564453 0 -14.90084171295166
v 39.901416778564453 0 -12.452476501464844
v 36.869403839111328 0 -12.452476501464844
v 36.869403839111328 0 -13.177759170532227
v 38.365699768066406 0 -13.177759170532227
v 38.365699768066406 0 -13.350631713867188
v 36.869403839111328 0 -13.350631713867188
v 36.869403839111328 0 -14.249569892883301
v 38.365699768066406 0 -14.249569892883301
v 38.365699768066406 0 -14.422442436218262
v 36.869403839111328 0 -14.422442436218262
v 36.869403839111328 0 -15.127762794494629
v 38.573146820068359 0 -15.127762794494629
v 38.573146820068359 0 -15.487338066101074
v 36.869403839111328 0 -15.487338066101074
v 36.869403839111328 0 -16.803304672241211
v 38.21221923828125 0 -16.803304672241211
v 38.21221923828125 0 -17.061117172241211
v 36.869403839111328 0 -17.061117172241211
v 36.869403839111328 0 -18.140861511230469
v 43.830715179443359 0 -18.140861511230469
v 43.830715179443359 0 -19.917026519775391
v 41.054267883300781 0 -19.917026519775391
v 41.054267883300781 0 -19.679044723510742
v 43.493576049804688 0 -19.679044723510742
v 43.493576049804688 0 -18.528802871704102
v 39.864360809326172 0 -18.528802871704102
v 39.864360809326172 0 -21.054874420166016
v 43.901985168457031 0 -21.054874420166016
v 43.446968078613281 0 -22.988689422607422
v 39.244113922119141 0 -22.157903671264648
v 33.983551025390625 0 -22.157903671264648
v 33.983551025390625 0 -21.057905197143555
v 36.393440246582031 0 -21.057905197143555
v 36.393440246582031 0 -13.041531562805176
v 32.032684326171875 0 -13.041531562805176
v 32.032684326171875 0 -11.605679512023926
v 42.941139221191406 0 -11.605679512023926
v 42.941139221191406 0 -5.5471229553222656
v 26.205263137817383 0 -5.5471229553222656
v 8.4105329513549805 0 -10.78718090057373
v 8.4105329513549805 0 -26.654279708862305
v 7.3105325698852539 0 -26.654279708862305
v 7.3105325698852539 0 -21.464347839355469
v 3.6704084873199463 0 -21.464347839355469
v 3.6704084873199463 0 -28.133335113525391
v 6.5116696357727051 0 -28.133335113525391
v 6.5116696357727051 0 -28.490306854248047
v 3.6704084873199463 0 -28.490306854248047
v 3.6704084873199463 0 -35.210052490234375
v 6.5116696357727051 0 -35.210052490234375
v 6.5116696357727051 0 -35.567024230957031
v 3.6704084873199463 0 -35.567024230957031
v 3.6704084873199463 0 -40.961265563964844
v 6.5116696357727051 0 -40.961265563964844
v 6.5116696357727051 0 -41.318233489990234
v 3.6704084873199463 0 -41.318233489990234
v 3.6704084873199463 0 -42.920604705810547
v 7.3105325698852539 0 -42.920604705810547
v 7.3105325698852539 0 -38.922142028808594
v 8.4105329513549805 0 -38.922142028808594
v 8.4105329513549805 0 -69.714675903320312
v 9.3998022079467773 0 -69.714675903320312
v 9.3998022079467773 0 -68.661949157714844
v 9.5657596588134766 0 -68.661949157714844
v 9.5657596588134766 0 -69.714675903320312
v 10.409379005432129 0 -69.714675903320312
v 10.409379005432129 0 -68.661949157714844
v 10.575336456298828 0 -68.661949157714844
v 10.575336456298828 0 -69.714675903320312
v 12.176793098449707 0 -69.714675903320312
v 12.176793098449707 0 -68.793327331542969
v 11.335976600646973 0 -68.793327331542969
v 11.335976600646973 0 -68.592796325683594
v 12.176793098449707 0 -68.592796325683594
v 12.176793098449707 0 -67.728431701660156
v 11.335976600646973 0 -67.728431701660156
v 11.335976600646973 0 -67.527900695800781
v 12.176793098449707 0 -67.527900695800781
v 12.176793098449707 0 -66.708992004394531
v 10.694270133972168 0 -66.708992004394531
v 10.694270133972168 0 -67.925773620605469
v 9.4247474670410156 0 -67.925773620605469
v 9.4247474670410156 0 -67.447845458984375
v 10.361776351928711 0 -67.447845458984375
v 10.361776351928711 0 -66.420135498046875
v 12.175380706787109 0 -66.420135498046875
v 12.175380706787109 0 -64.485626220703125
v 11.511631965637207 0 -64.485626220703125
v 11.511631965637207 0 -65.810569763183594
v 11.345673561096191 0 -65.810569763183594
v 11.345673561096191 0 -64.485626220703125
v 10.59972095489502 0 -64.485626220703125
v 10.59972095489502 0 -65.810569763183594
v 10.433762550354004 0 -65.810569763183594
v 10.433762550354004 0 -64.485626220703125
v 9.7270145416259766 0 -64.485626220703125
v 9.7270145416259766 0 -66.843315124511719
v 9.3642940521240234 0 -66.843315124511719
v 9.3642940521240234 0 -63.941547393798828
v 12.480904579162598 0 -63.941547393798828
v 12.480904579162598 0 -70.029747009277344
v 14.764067649841309 0 -70.029747009277344
v 13.704405784606934 0 -66.776832580566406
v 13.704405784606934 0 -62.5626220703125
v 18.842950820922852 0 -62.5626220703125
v 18.842950820922852 0 -66.280509948730469
v 15.073290824890137 0 -67.427597045898438
v 15.834810256958008 0 -69.765281677246094
v 23.017782211303711 0 -67.523612976074219
v 27.914512634277344 0 -67.946784973144531
v 28.60972785949707 0 -70.576507568359375
v 31.209228515625 0 -69.881294250488281
v 30.72559928894043 0 -68.309501647949219
v 29.63743782043457 0 -67.946784973144531
v 29.909477233886719 0 -66.677261352539062
v 35.833919525146484 0 -61.871212005615234
v 37.526615142822266 0 -66.586578369140625
v 34.503940582275391 0 -76.661109924316406
v 37.004177093505859 0 -76.661109924316406
v 39.128814697265625 0 -69.579727172851562
v 38.594196319580078 0 -69.579727172851562
v 38.594196319580078 0 -68.526924133300781
v 44.813045501708984 0 -68.526924133300781
v 45.830520629882812 0 -75.389541625976562
v 48.173740386962891 0 -75.01300048828125
v 47.051406860351562 0 -67.34271240234375
v 52.153804779052734 0 -62.310211181640625
v 54.459064483642578 0 -62.310211181640625
v 54.459064483642578 0 -72.575477600097656
v 56.869220733642578 0 -72.575477600097656
v 56.869220733642578 0 -53.113174438476562
v 52.310394287109375 0 -39.011211395263672
v 53.357059478759766 0 -38.672847747802734
v 57.969219207763672 0 -52.939788818359375
v 57.969219207763672 0 -74.553024291992188
v 38.005413055419922 0 -77.7611083984375
v 17.282617568969727 0 -77.7611083984375
v 26.448431015014648 0 -84.699180603027344
v 47.400226593017578 0 -80.71697998046875
v 60.915985107421875 0 -80.71697998046875
v 60.915985107421875 0 -43.529960632324219
v 56.138645172119141 0 -37.790664672851562
v 53.867046356201172 0 -30.052762985229492
v 53.954978942871094 0 -22.052694320678711
v 56.184589385986328 0 -14.306864738464355
v 57.508529663085938 0 -12.705678939819336
v 56.442417144775391 0 -12.705678939819336
v 56.442417144775391 0 -11.605679512023926
v 58.418064117431641 0 -11.605679512023926
v 60.915985107421875 0 -8.5846681594848633
v 60.915985107421875 0 -5.5471229553222656
v 50.678638458251953 0 -5.5471229553222656
v 50.678638458251953 0 -11.605679512023926
v 51.748931884765625 0 -11.605679512023926
v 51.748931884765625 0 -13.041531562805176
v 49.494960784912109 0 -13.041531562805176
v 20.429569244384766 0 -39.286109924316406
v 20.429569244384766 0 -37.090373992919922
v 20.699787139892578 0 -35.853061676025391
v 21.774457931518555 0 -36.087760925292969
v 21.529569625854492 0 -37.209091186523438
v 21.529569625854492 0 -39.286109924316406
v 21.333978652954102 0 -47.493785858154297
v 21.333978652954102 0 -64.353668212890625
v 23.260961532592773 0 -64.782417297363281
v 27.766380310058594 0 -65.308128356933594
v 33.430427551269531 0 -60.529090881347656
v 30.259975433349609 0 -60.529090881347656
v 28.174556732177734 0 -47.599887847900391
v 23.380739212036133 0 -48.304691314697266
v 23.380739212036133 0 -61.707317352294922
v 23.112247467041016 0 -61.707317352294922
v 23.112247467041016 0 -47.232337951660156
v 27.933221817016602 0 -46.523544311523438
v 27.933221817016602 0 -45.105499267578125
v 29.133222579956055 0 -45.105499267578125
v 29.133222579956055 0 -46.635494232177734
v 31.196767807006836 0 -59.429088592529297
v 35.163120269775391 0 -59.429088592529297
v 35.163120269775391 0 -60.506370544433594
v 28.111827850341797 0 -66.455902099609375
v 23.075973510742188 0 -65.868293762207031
v 20.267236709594727 0 -65.236328125
v 20.027883529663086 0 -47.493785858154297
v 37.100074768066406 0 -40.001289367675781
v 36.034770965576172 0 -40.001289367675781
v 36.034770965576172 0 -41.020526885986328
v 34.934768676757812 0 -41.020526885986328
v 34.934768676757812 0 -38.901290893554688
v 37.100074768066406 0 -38.901290893554688
v 50.381988525390625 0 -24.511077880859375
v 44.242942810058594 0 -23.146032333374023
v 44.697956085205078 0 -21.212215423583984
v 44.697956085205078 0 -18.140861511230469
v 48.281204223632812 0 -18.140861511230469
v 48.281204223632812 0 -13.81821346282959
v 50.937206268310547 0 -13.81821346282959
v 50.937206268310547 0 -23.382898330688477
v 51.581985473632812 0 -23.53264045715332
v 51.581985473632812 0 -32.731258392333984
v 50.381988525390625 0 -32.731258392333984
v 36.084793090820312 0 -45.903480529785156
v 36.084793090820312 0 -51.989315032958984
v 37.506717681884766 0 -51.989315032958984
v 37.506717681884766 0 -49.202342987060547
v 40.63494873046875 0 -49.202342987060547
v 40.63494873046875 0 -56.368839263916016
v 36.312301635742188 0 -57.904514312744141
v 32.330917358398438 0 -57.904514312744141
v 30.738361358642578 0 -47.041019439697266
v 34.884792327880859 0 -47.041019439697266
v 34.884792327880859 0 -45.903480529785156
v 13.827374458312988 0 -28.167551040649414
v 12.97760009765625 0 -32.318458557128906
v 13.085524559020996 0 -33.325752258300781
v 11.99178409576416 0 -33.442939758300781
v 11.865629196166992 0 -32.265491485595703
v 12.749724388122559 0 -27.946935653686523
v 13.135481834411621 0 -34.938716888427734
v 13.387791633605957 0 -37.293617248535156
v 12.294052124023438 0 -37.410804748535156
v 12.041741371154785 0 -35.055904388427734
v 13.872775077819824 0 -42.100997924804688
v 14.504740715026855 0 -47.999347686767578
v 13.411001205444336 0 -48.116535186767578
v 12.779034614562988 0 -42.218185424804688
v 14.721656799316406 0 -52.189205169677734
v 14.721656799316406 0 -60.474983215332031
v 13.62165641784668 0 -60.474983215332031
v 13.62165641784668 0 -52.189205169677734
v 45.361030578613281 0 -55.681034088134766
v 42.080482482910156 0 -55.681034088134766
v 42.080482482910156 0 -41.897411346435547
v 43.18048095703125 0 -41.897411346435547
v 43.18048095703125 0 -54.581031799316406
v 46.461029052734375 0 -54.581031799316406
v 46.461029052734375 0 -58.514820098876953
v 42.458271026611328 0 -58.514820098876953
v 38.143398284912109 0 -60.295562744140625
v 40.001869201660156 0 -65.937347412109375
v 44.909832000732422 0 -65.937347412109375
v 50.589359283447266 0 -60.335624694824219
v 50.589359283447266 0 -50.999801635742188
v 51.689357757568359 0 -50.999801635742188
v 51.689357757568359 0 -60.795711517333984
v 45.361030578613281 0 -67.037345886230469
v 39.206077575683594 0 -67.037345886230469
v 36.778774261474609 0 -59.668746948242188
v 42.240207672119141 0 -57.414821624755859
v 45.361030578613281 0 -57.414821624755859
v 47.319068908691406 0 -41.476718902587891
v 46.661693572998047 0 -39.340251922607422
v 47.713050842285156 0 -39.016757965087891
v 48.370426177978516 0 -41.153224945068359
v 49.501514434814453 0 -44.829257965087891
v 50.443145751953125 0 -47.889560699462891
v 49.391788482666016 0 -48.213054656982422
v 48.450157165527344 0 -45.152751922607422
v 17.587556838989258 0 -15.705887794494629
v 16.303716659545898 0 -16.071317672729492
v 14.863893508911133 0 -23.104450225830078
v 13.786243438720703 0 -22.883834838867188
v 15.360052108764648 0 -15.196227073669434
v 17.286417007446289 0 -14.647911071777344
v 21.845460891723633 0 -13.350235939025879
v 25.864927291870117 0 -12.206145286560059
v 26.166067123413086 0 -13.264122009277344
v 22.146600723266602 0 -14.408212661743164
v 29.094161987304688 0 -37.102809906005859
v 29.094161987304688 0 -40.2294921875
v 27.994161605834961 0 -40.2294921875
v 27.994161605834961 0 -37.102809906005859
v 29.094161987304688 0 -35.342117309570312
v 27.994161605834961 0 -35.342117309570312
v 27.994161605834961 0 -32.437351226806641
v 30.747402191162109 0 -31.58038330078125
v 31.074316024780273 0 -32.630680084228516
v 29.094161987304688 0 -33.247020721435547
v 39.985347747802734 0 -30.887958526611328
v 36.746055603027344 0 -30.865304946899414
v 35.786167144775391 0 -31.164077758789062
v 35.459255218505859 0 -30.113779067993164
v 36.58258056640625 0 -29.764135360717773
v 39.9930419921875 0 -29.787984848022461
v 41.929313659667969 0 -29.801525115966797
v 44.715980529785156 0 -29.821012496948242
v 45.626010894775391 0 -32.437351226806641
v 44.587066650390625 0 -32.798725128173828
v 43.932052612304688 0 -30.915557861328125
v 41.921623229980469 0 -30.901498794555664
v 8.4105329513549805 0 -37.8221435546875
v 7.3105325698852539 0 -37.8221435546875
v 7.3105325698852539 0 -33.703807830810547
v 8.4105329513549805 0 -33.703807830810547
v 7.3105325698852539 0 -32.603809356689453
v 7.3105325698852539 0 -27.754280090332031
v 8.4105329513549805 0 -27.754280090332031
v 8.4105329513549805 0 -32.603809356689453
v 20.429569244384766 0 -41.983833312988281
v 21.529569625854492 0 -41.983833312988281
v 21.529569625854492 0 -44.277347564697266
v 20.429569244384766 0 -44.277347564697266
v 22.258491516113281 0 -28.71583366394043
v 23.333162307739258 0 -28.950531005859375
v 22.822694778442383 0 -31.287937164306641
v 21.748023986816406 0 -31.053239822387695
v 27.992433547973633 0 -21.057905197143555
v 27.992433547973633 0 -22.157903671264648
v 24.816610336303711 0 -22.157903671264648
v 24.612123489379883 0 -23.09423828125
v 23.537452697753906 0 -22.859539031982422
v 23.930913925170898 0 -21.057905197143555
v 9.7675151824951172 0 -52.797798156738281
v 10.327269554138184 0 -52.797798156738281
v 10.327269554138184 0 -58.917781829833984
v 9.7675151824951172 0 -58.917781829833984
v 11.782630920410156 0 -52.797798156738281
v 12.342385292053223 0 -52.797798156738281
v 12.342385292053223 0 -58.917781829833984
v 11.782630920410156 0 -58.917781829833984
v 16.335300445556641 0 -55.1114501953125
v 16.895053863525391 0 -55.1114501953125
v 16.895053863525391 0 -59.365585327148438
v 16.335300445556641 0 -59.365585327148438
v 18.275781631469727 0 -55.1114501953125
v 18.835536956787109 0 -55.1114501953125
v 18.835536956787109 0 -59.365585327148438
v 18.275781631469727 0 -59.365585327148438
v 16.335300445556641 0 -49.961711883544922
v 16.895053863525391 0 -49.961711883544922
v 16.895053863525391 0 -54.215843200683594
v 16.335300445556641 0 -54.215843200683594
v 18.275781631469727 0 -48.730251312255859
v 18.835536956787109 0 -48.730251312255859
v 18.835536956787109 0 -54.215843200683594
v 18.275781631469727 0 -54.215843200683594
v 18.275781631469727 0 -43.319290161132812
v 18.835536956787109 0 -43.319290161132812
v 18.835536956787109 0 -47.57342529296875
v 18.275781631469727 0 -47.57342529296875
v 16.335300445556641 0 -43.319290161132812
v 16.895053863525391 0 -43.319290161132812
v 16.895053863525391 0 -47.57342529296875
v 16.335300445556641 0 -47.57342529296875
v 16.335300445556641 0 -34.960292816162109
v 16.895053863525391 0 -34.960292816162109
v 16.895053863525391 0 -39.214424133300781
v 16.335300445556641 0 -39.214424133300781
v 18.275781631469727 0 -34.960292816162109
v 18.835536956787109 0 -34.960292816162109
v 18.835536956787109 0 -39.214424133300781
v 18.275781631469727 0 -39.214424133300781
v 15.516066551208496 0 -28.421354293823242
v 16.064447402954102 0 -28.533618927001953
v 15.211236953735352 0 -32.701313018798828
v 14.662856101989746 0 -32.58905029296875
v 17.643156051635742 0 -28.8568115234375
v 18.191537857055664 0 -28.969076156616211
v 17.338325500488281 0 -33.136772155761719
v 16.789945602416992 0 -33.024505615234375
v 19.719663619995117 0 -29.281913757324219
v 20.268045425415039 0 -29.39417839050293
v 19.414833068847656 0 -33.561874389648438
v 18.866453170776367 0 -33.449607849121094
v 12.053729057312012 0 -21.434335708618164
v 12.602109909057617 0 -21.546600341796875
v 11.748898506164551 0 -25.714296340942383
v 11.200517654418945 0 -25.602031707763672
v 13.756870269775391 0 -14.33366584777832
v 14.305251121520996 0 -14.445930480957031
v 13.452040672302246 0 -18.613624572753906
v 12.903658866882324 0 -18.501359939575195
v 31.836868286132812 0 -28.099811553955078
v 31.992698669433594 0 -28.637435913085938
v 26.884847640991211 0 -30.117946624755859
v 26.72901725769043 0 -29.580322265625
v 31.246797561645508 0 -26.064027786254883
v 31.402627944946289 0 -26.601654052734375
v 26.294776916503906 0 -28.082164764404297
v 26.138946533203125 0 -27.544538497924805
v 30.564435958862305 0 -23.709842681884766
v 30.720266342163086 0 -24.247468948364258
v 25.612415313720703 0 -25.72797966003418
v 25.456584930419922 0 -25.190353393554688
v 27.927282333374023 0 -14.611502647399902
v 28.083112716674805 0 -15.149128913879395
v 20.962116241455078 0 -17.213150024414062
v 20.806285858154297 0 -16.67552375793457
v 28.531726837158203 0 -16.696874618530273
v 28.687559127807617 0 -17.234500885009766
v 21.566560745239258 0 -19.29852294921875
v 21.410730361938477 0 -18.760896682739258
v 26.218076705932617 0 -9.7715787887573242
v 26.373907089233398 0 -10.309205055236816
v 16.581531524658203 0 -13.147524833679199
v 16.425701141357422 0 -12.609899520874023
v 25.535715103149414 0 -7.4173932075500488
v 25.691545486450195 0 -7.955019474029541
v 15.899169921875 0 -10.793339729309082
v 15.743339538574219 0 -10.25571346282959
v 41.113777160644531 0 -27.55497932434082
v 48.315952301025391 0 -27.55497932434082
v 48.315952301025391 0 -28.189367294311523
v 41.113777160644531 0 -28.189367294311523
v 41.113777160644531 0 -25.315961837768555
v 47.159126281738281 0 -25.315961837768555
v 47.159126281738281 0 -25.950349807739258
v 41.113777160644531 0 -25.950349807739258
v 39.733051300048828 0 -25.315961837768555
v 39.733051300048828 0 -25.950349807739258
v 33.687702178955078 0 -25.950349807739258
v 33.687702178955078 0 -25.315961837768555
v 39.733051300048828 0 -27.55497932434082
v 39.733051300048828 0 -28.189367294311523
v 34.355400085449219 0 -28.189367294311523
v 34.355400085449219 0 -27.55497932434082
v 35.017082214355469 0 -14.319787979125977
v 35.017082214355469 0 -14.95417594909668
v 29.639432907104492 0 -14.95417594909668
v 29.639432907104492 0 -14.319787979125977
v 35.017082214355469 0 -16.408071517944336
v 35.017082214355469 0 -17.042461395263672
v 30.63128662109375 0 -17.042461395263672
v 30.63128662109375 0 -16.408071517944336
v 34.11553955078125 0 -9.5956764221191406
v 34.11553955078125 0 -10.230064392089844
v 28.737888336181641 0 -10.230064392089844
v 28.737888336181641 0 -9.5956764221191406
v 34.11553955078125 0 -7.356658935546875
v 34.11553955078125 0 -7.9910473823547363
v 28.070192337036133 0 -7.9910473823547363
v 28.070192337036133 0 -7.356658935546875
v 35.194000244140625 0 -9.5956764221191406
v 41.239345550537109 0 -9.5956764221191406
v 41.239345550537109 0 -10.230064392089844
v 35.194000244140625 0 -10.230064392089844
v 35.194000244140625 0 -7.356658935546875
v 41.239345550537109 0 -7.356658935546875
v 41.239345550537109 0 -7.9910473823547363
v 35.194000244140625 0 -7.9910473823547363
f 127 125 126
f 146 125 127
f 130 131 128 129
f 128 131 145 146
f 146 127 128
f 125 147 162
f 148 161 147
f 147 161 162
f 146 147 125
f 161 149 158
f 158 149 157
f 131 132 145
f 161 148 149
f 158 160 161
f 163 125 162
f 136 137 132
f 133 134 135 136
f 137 140 145
f 137 145 132
f 164 165 167
f 138 139 140 137
f 145 141 144
f 149 150 154 157
f 143 144 141 142
f 140 141 145
f 150 153 154
f 165 166 167
f 136 132 133
f 163 379 380
f 377 125 380
f 158 159 160
f 155 156 157 154
f 378 379 384 381
f 120 121 119
f 122 119 121
f 377 289 290
f 122 118 119
f 289 377 378
f 377 124 125
f 118 123 117
f 163 164 384 379
f 125 163 380
f 152 153 150 151
f 384 164 293
f 164 168 293
f 167 168 164
f 383 384 293
f 290 124 377
f 381 382 289
f 293 294 382 383
f 381 289 378
f 288 289 294
f 382 294 289
f 405 287 288
f 288 294 291
f 168 292 293
f 290 287 284
f 292 168 169
f 173 170 172
f 247 169 170
f 172 170 171
f 388 292 169
f 169 387 388
f 386 395 396 385
f 386 387 392 389
f 292 388 385
f 169 391 392
f 390 399 400 389
f 247 391 169
f 392 387 169
f 389 400 395 386
f 178 245 174
f 245 246 174
f 170 173 247
f 177 178 176
f 178 175 176
f 178 179 245
f 230 231 232
f 175 178 174
f 245 179 244
f 173 246 247
f 227 228 236 237
f 228 229 236
f 235 229 230
f 230 232 235
f 236 229 235
f 173 174 246
f 240 252 334
f 201 202 200
f 232 234 235
f 288 393 408
f 396 393 291
f 385 396 291
f 394 407 408 393
f 400 397 394 395
f 397 407 394
f 406 411 412 405
f 406 407 404 401
f 408 405 288
f 398 403 404 397
f 397 404 407
f 403 398 248
f 401 416 411 406
f 248 399 390
f 393 288 291
f 399 248 398
f 390 247 248
f 248 227 365 366
f 227 237 365
f 237 238 239
f 391 247 390
f 239 365 237
f 402 415 416 401
f 366 363 402
f 366 402 403
f 365 239 364
f 364 239 335
f 334 335 239 240
f 334 253 333
f 364 226 221 363
f 415 402 363 221
f 274 240 241
f 248 366 403
f 234 232 233
f 287 405 412
f 385 291 292
f 335 226 364
f 356 115 116
f 115 357 114
f 123 124 355 356
f 123 118 122
f 286 355 285
f 116 117 123 356
f 113 114 359
f 359 114 357
f 358 362 359 357
f 356 357 115
f 112 113 359
f 283 280 286
f 280 281 358
f 281 362 358
f 286 280 358
f 358 355 286
f 362 281 361
f 285 355 124
f 284 285 290
f 279 283 420
f 283 279 280
f 409 283 284
f 409 419 283
f 423 410 413
f 284 412 409
f 285 124 290
f 410 424 409
f 279 420 278
f 278 420 277
f 418 419 424
f 420 283 419
f 424 419 409
f 325 418 421
f 428 422 423
f 418 424 421
f 424 410 423
f 422 325 421
f 410 411 416 413
f 412 284 287
f 359 111 112
f 106 109 110
f 110 111 360
f 111 359 360
f 360 361 105 106
f 432 361 282
f 110 360 106
f 281 282 361
f 108 109 106
f 106 107 108
f 105 432 429
f 361 432 105
f 436 104 429
f 326 430 431
f 429 104 105
f 432 282 431
f 430 436 429
f 277 431 282
f 325 326 277
f 326 435 430
f 435 436 430
f 277 326 431
f 325 417 418
f 277 417 325
f 325 323 324
f 323 325 456
f 327 435 326
f 434 463 433
f 104 433 464
f 433 463 464
f 460 434 327
f 327 434 435
f 458 459 329
f 327 328 459
f 434 460 463
f 460 457 462
f 327 459 460
f 329 459 328
f 328 323 452
f 104 436 433
f 277 420 417
f 103 104 464
f 455 325 422
f 222 415 221
f 336 224 225
f 225 226 335 336
f 222 414 415
f 428 413 414
f 414 427 428
f 427 414 223
f 422 428 425
f 370 426 427
f 224 370 223
f 426 375 425
f 426 370 367
f 223 370 427
f 414 222 223
f 422 425 455
f 370 224 369
f 224 338 369
f 338 336 333 337
f 440 369 439
f 369 339 439
f 339 369 338
f 336 338 224
f 337 341 342
f 340 439 339
f 368 375 367
f 368 447 448
f 447 368 444
f 367 375 426
f 368 443 444
f 447 444 446
f 444 441 446
f 442 443 440
f 440 443 368
f 440 368 369
f 333 341 337
f 368 448 375
f 455 456 325
f 452 323 451
f 454 455 376
f 451 323 456
f 448 374 375
f 456 453 450
f 374 448 373
f 455 375 376
f 375 455 425
f 452 449 332
f 462 463 460
f 452 332 329
f 103 461 462
f 464 461 103
f 457 495 462
f 462 496 103
f 458 330 331
f 458 329 330
f 328 452 329
f 371 454 376
f 456 450 451
f 453 483 450
f 445 371 372
f 449 331 332
f 454 371 487
f 445 487 371
f 454 487 488
f 96 487 445
f 453 454 488
f 373 448 372
f 488 483 453
f 492 495 458
f 491 331 449
f 495 496 462
f 494 495 492 489
f 458 331 491
f 458 495 457
f 449 484 491
f 482 483 488 485
f 458 491 492
f 100 490 491
f 484 100 491
f 484 449 450
f 484 450 483
f 448 445 372
f 493 103 496
f 446 95 445
f 428 423 413
f 273 241 242
f 180 244 179
f 185 181 182
f 244 312 243
f 272 273 242 243
f 274 241 273
f 274 275 276
f 252 274 276
f 251 252 276 266
f 250 251 249
f 267 269 266
f 334 252 253
f 180 312 244
f 184 185 183
f 186 181 185
f 181 311 312
f 186 187 310 311
f 181 186 311
f 312 272 243
f 269 267 268
f 266 269 270
f 266 270 297
f 271 272 312
f 181 312 180
f 249 251 266
f 302 303 304
f 185 182 183
f 249 266 297
f 438 340 341
f 438 480 437
f 442 440 437
f 438 341 346
f 345 346 341
f 254 345 253
f 478 479 347
f 346 479 438
f 346 347 479
f 253 345 341
f 341 333 253
f 479 480 438
f 475 441 442
f 441 475 476
f 474 475 480 477
f 442 437 475
f 446 476 95
f 94 95 476 473
f 97 486 96
f 95 96 445
f 475 437 480
f 96 486 487
f 441 476 446
f 254 344 345
f 297 343 254
f 344 254 343
f 347 348 478
f 349 468 348
f 468 465 477 478
f 348 468 478
f 249 297 254
f 354 348 343
f 474 477 465 472
f 473 469 94
f 473 474 472 469
f 94 469 93
f 349 350 468
f 91 86 87
f 296 270 271
f 240 274 252
f 190 310 187
f 309 310 190
f 304 305 302
f 203 199 200
f 306 301 305
f 189 190 187
f 188 189 187
f 313 314 295 296
f 312 313 271
f 322 298 299
f 271 313 296
f 306 300 301
f 301 302 305
f 191 309 190
f 309 191 192
f 193 194 192
f 198 199 204
f 199 203 204
f 195 309 192
f 307 320 321
f 318 322 319
f 196 319 320
f 321 322 300
f 194 195 192
f 320 307 308
f 195 320 308
f 195 308 309
f 321 300 307
f 198 205 197
f 198 204 205
f 307 300 306
f 352 354 297
f 270 296 297
f 354 352 353
f 298 352 297
f 354 349 348
f 351 352 316
f 298 316 352
f 467 350 351
f 316 298 315
f 471 472 465 466
f 468 350 467
f 91 92 85 86
f 93 256 92
f 469 470 256
f 466 470 471
f 92 256 257
f 255 256 470
f 256 93 469
f 257 85 92
f 317 351 316
f 354 343 297
f 318 315 322
f 351 265 467
f 317 196 265
f 196 317 318
f 317 265 351
f 320 195 196
f 319 196 318
f 197 264 196
f 205 206 197
f 264 265 196
f 315 298 322
f 206 264 197
f 255 466 467
f 466 255 470
f 255 467 265
f 206 207 264
f 262 263 208
f 207 208 263
f 207 263 264
f 322 299 300
f 200 202 203
f 208 261 262
f 81 82 83
f 58 59 80 81
f 83 58 81
f 77 80 59
f 59 60 61 62
f 89 90 87 88
f 98 486 97
f 485 486 98
f 79 80 78
f 62 76 77
f 73 75 76
f 78 80 77
f 77 59 62
f 62 63 76
f 57 50 51 56
f 84 50 57
f 54 56 51
f 57 83 84
f 54 55 56
f 64 65 63
f 53 54 51
f 52 53 51
f 76 63 73
f 58 83 57
f 90 91 87
f 484 481 98 99
f 500 490 100
f 482 98 481
f 99 100 484
f 70 71 72 69
f 98 482 485
f 489 490 500 497
f 493 494 504 501
f 494 489 497 504
f 100 101 499 500
f 102 493 501
f 63 72 73
f 67 68 66
f 69 65 68
f 69 72 63
f 65 69 63
f 40 45 46 39
f 43 45 40
f 73 74 75
f 42 43 40 41
f 68 65 66
f 503 498 101
f 498 499 101
f 503 102 502
f 498 503 504 497
f 45 43 44
f 102 501 502
f 46 47 18 19
f 50 84 49
f 84 258 49
f 258 85 257
f 48 49 14 15
f 31 19 28
f 258 84 85
f 48 18 47
f 36 39 46
f 36 19 35
f 36 46 19
f 38 39 36 37
f 32 19 31
f 17 18 48 15
f 35 19 32
f 19 20 28
f 32 33 34 35
f 258 14 49
f 17 15 16
f 258 259 8 13
f 258 13 14
f 8 12 13
f 259 7 8
f 6 7 259 260
f 27 28 20
f 24 25 26 27
f 27 20 24
f 20 23 24
f 9 12 8
f 9 10 12
f 10 11 12
f 208 209 219
f 30 31 28 29
f 23 21 22
f 102 503 101
f 3 4 6
f 6 4 5
f 23 20 21
f 260 261 219 220
f 1 260 220
f 211 218 219
f 261 208 219
f 209 211 219
f 211 209 210
f 1 2 3
f 216 217 218
f 1 3 6
f 216 212 215
f 213 215 212
f 215 213 214
f 218 212 216
f 218 211 212
f 260 1 6
f 103 493 102
f 439 340 438
